<?xml version="1.0" standalone="no"?>
<!DOCTYPE svg PUBLIC "-//W3C//DTD SVG 20010904//EN"
 "http://www.w3.org/TR/2001/REC-SVG-20010904/DTD/svg10.dtd">
<svg version="1.0" xmlns="http://www.w3.org/2000/svg"
 width="206.000000pt" height="206.000000pt" viewBox="0 0 206.000000 206.000000"
 preserveAspectRatio="xMidYMid meet">
<metadata>
Created by potrace 1.11, written by Peter Selinger 2001-2013
</metadata>
<g transform="translate(0.000000,206.000000) scale(0.100000,-0.100000)"
fill="#000000" stroke="none">
<path d="M850 2014 c-36 -9 -70 -17 -77 -18 -7 -1 -16 -5 -19 -9 -4 -4 -14 -7
-22 -7 -8 0 -28 -6 -45 -14 -18 -8 -59 -26 -91 -41 -108 -48 -223 -136 -324
-249 -34 -38 -140 -197 -149 -224 -3 -10 -16 -45 -30 -80 -47 -123 -62 -222
-58 -392 4 -172 14 -223 72 -360 105 -247 302 -427 572 -524 119 -43 225 -56
411 -52 166 4 265 20 353 60 187 83 240 118 358 237 134 134 203 267 175 333
-15 35 -68 67 -356 211 -96 48 -182 94 -190 103 -8 8 -10 12 -4 9 5 -3 29 -2
52 4 38 8 364 65 422 74 69 10 117 26 133 46 37 46 16 157 -63 326 -62 132
-96 180 -200 283 -132 132 -278 218 -464 271 -96 28 -360 36 -456 13z"/>
</g>
</svg>
