<?xml version="1.0" encoding="utf-8"?>
<!-- Generator: Adobe Illustrator 21.1.0, SVG Export Plug-In . SVG Version: 6.00 Build 0)  -->
<svg version="1.1" id="Layer_1" xmlns="http://www.w3.org/2000/svg" xmlns:xlink="http://www.w3.org/1999/xlink" x="0px" y="0px"
	 viewBox="0 0 681.7 259.8" style="enable-background:new 0 0 681.7 259.8;" xml:space="preserve">
<style type="text/css">
	.st0{clip-path:url(#SVGID_2_);fill:url(#SVGID_3_);}
	.st1{clip-path:url(#SVGID_5_);fill:url(#SVGID_6_);}
	.st2{fill:#FFFFFF;}
</style>
<g>
	<defs>
		<path id="SVGID_1_" d="M612.2,147.5l-27.2,29c-16.5,16.5-19.3,37.5-19.3,45.7c-0.1,0.6-0.1,1.3-0.1,1.9v1.2
			c0.1,6.9,1.6,15.3,2.4,17.8l2,6.3l57.5-58.4c8.1-8.1,12.1-19.3,11-30.7c-0.8-8.8-4.8-17.1-11.1-23.4l-7.1-7.1l-3-3.1
			C617.5,126.9,620.3,137.7,612.2,147.5"/>
	</defs>
	<clipPath id="SVGID_2_">
		<use xlink:href="#SVGID_1_"  style="overflow:visible;"/>
	</clipPath>
	
		<linearGradient id="SVGID_3_" gradientUnits="userSpaceOnUse" x1="-285.1124" y1="588.8941" x2="-278.6924" y2="588.8941" gradientTransform="matrix(12.0297 -15.8486 15.8486 12.0297 -5345.0869 -11356.418)">
		<stop  offset="0" style="stop-color:#73BE1E"/>
		<stop  offset="0.1816" style="stop-color:#6FB91F"/>
		<stop  offset="0.3696" style="stop-color:#63AC20"/>
		<stop  offset="0.5605" style="stop-color:#4E9721"/>
		<stop  offset="0.7535" style="stop-color:#317B23"/>
		<stop  offset="0.9463" style="stop-color:#105C22"/>
		<stop  offset="1" style="stop-color:#005322"/>
	</linearGradient>
	<polygon class="st0" points="612.5,285.1 698.7,171.5 592.6,90.9 506.4,204.5 	"/>
</g>
<g>
	<defs>
		<path id="SVGID_4_" d="M568.2,20.8c-0.1,0.3-4.5,17,1.4,37.8c4.8,16.8,18.4,32.2,18.4,32.2l56.8,57c9.6,9.6,6.9,21.7,6.7,22h0
			l2.5-2.8l7.3-7.2c6.3-6.3,10.2-14.6,11-23.4c0.1-1.2,0.2-2.4,0.2-3.5v-0.3c0-10.1-4-19.7-11.2-26.9l-91.8-90.9L568.2,20.8z"/>
	</defs>
	<clipPath id="SVGID_5_">
		<use xlink:href="#SVGID_4_"  style="overflow:visible;"/>
	</clipPath>
	
		<linearGradient id="SVGID_6_" gradientUnits="userSpaceOnUse" x1="-335.649" y1="603.512" x2="-329.2284" y2="603.512" gradientTransform="matrix(-12.2056 -14.0409 14.0409 -12.2056 -11917.4375 2785.9646)">
		<stop  offset="0" style="stop-color:#73BE1E"/>
		<stop  offset="0.1816" style="stop-color:#6FB91F"/>
		<stop  offset="0.3696" style="stop-color:#63AC20"/>
		<stop  offset="0.5605" style="stop-color:#4E9721"/>
		<stop  offset="0.7535" style="stop-color:#317B23"/>
		<stop  offset="0.9463" style="stop-color:#105C22"/>
		<stop  offset="1" style="stop-color:#005322"/>
	</linearGradient>
	<polygon class="st1" points="749.2,102.9 625.7,-39.2 486.9,81.4 610.5,223.5 	"/>
</g>
<g>
	<path class="st2" d="M511.7,86.3H484c-5.7,0-10.2,4.5-10.2,10.2l0,82.6h10.4c5.4,0,10.1-4,10.1-9v-65.2h18.5
		c8.6,0.8,13.9,5.6,13.9,13.9v0.3c0,7.3-5.1,13.1-13.9,14h-0.2c-3.5,0-6.6,1.5-8.9,3.8c-2.1,2.2-3.3,5.1-3.3,8.4l0,6h9.2l4.6-0.2
		c18.7-1.5,33.1-12.5,33.1-32.4v-0.3C547.2,99.5,533.8,86.3,511.7,86.3z"/>
	<path class="st2" d="M192,96.4v82.7h10.1c5.6,0,10.1-4,10.1-9V86.3l-10.5,0C196.2,86.5,192,90.9,192,96.4z"/>
	<path class="st2" d="M268.8,102.6c3.9-3.9,4-10.1,0.2-14.1l-0.3-0.3c-4-3.7-10.1-3.6-14,0.3l-41.9,44.2l41.9,44.2
		c3.9,3.9,10,4,14,0.3l0.3-0.3c3.8-4,3.7-10.2-0.2-14.1l-29.2-30.1v0L268.8,102.6z"/>
	<path class="st2" d="M319.9,96.5v49.6c0,10.7-4.8,15.4-12.7,15.4c-4.6,0-8.2-1.6-12.3-4.6c-2-1.5-3.6-2.1-6.1-2.1
		c-5.4,0-9.7,4.4-9.7,9.8c0,3.2,1.7,6.2,3.8,7.8c5.8,4.5,13.9,8.1,24.5,8.1c10.1,0,18.4-2.9,24.1-8.6c5.6-5.6,8.7-13.8,8.7-24.8
		V86.3l-10.5,0C324.3,86.5,319.9,90.9,319.9,96.5z"/>
	<path class="st2" d="M130.5,86.3H120c-5.6,0.2-9.9,4.6-9.9,10.2v82.6h58.2c5.1,0,9.3-4,9.3-9v-9.5h-47.1V86.3z"/>
	<path class="st2" d="M21.4,96.5l0,82.6h62.3c5,0,9.2-4,9.2-9v-9.5H41.6v-19.1H77c5,0,9.1-4,9.1-9c0-5-4.1-9.2-9.1-9.2H41.6v-18.8
		h42c5,0,9.2-4,9.2-9v-9.1H31.6C25.9,86.3,21.4,90.8,21.4,96.5z"/>
	<path class="st2" d="M380.8,143.8c-1.5-3.6-2.2-7.4-2.2-11.4c0-3.9,0.7-7.7,2.2-11.3c1.5-3.7,3.7-7.1,6.6-10
		c2.9-2.9,6.2-5.1,10-6.6c3.6-1.5,7.4-2.2,11.3-2.2c3.9,0,7.7,0.7,11.3,2.2c1.1,0.4,2.3,0.7,3.4,0.7c2.6,0,4.9-1.1,6.6-2.8
		c0,0,8-7.9,8-7.9c-3.7-2.9-7.1-5-10.2-6.5c-0.3-0.2-0.6-0.3-0.9-0.4c-5.8-2.3-11.9-3.5-18.2-3.5c-6.3,0-12.5,1.2-18.2,3.5
		c-6,2.4-11.4,6-16.1,10.6c-4.6,4.6-8.2,10-10.6,16.1c-2.3,5.8-3.5,11.9-3.5,18.2c0,6.3,1.2,12.4,3.5,18.2c0.2,0.5,0.6,1.4,0.9,2
		c1.7,2.9,3.4,5.5,6,9c0,0,5.3-5.2,7.2-7.2c1.2-1,2.2-2.2,2.8-3.7C381.7,148.5,381.7,146,380.8,143.8z"/>
	<path class="st2" d="M449,106.1c-0.1-0.2-2.4-3.2-2.3-3.2c0,0-7.9,8-7.9,8c-1.8,1.7-2.8,4-2.8,6.6c0,1.2,0.2,2.3,0.7,3.4
		c1.5,3.6,2.2,7.4,2.2,11.3c0,3.9-0.7,7.8-2.2,11.3c-1.5,3.7-3.7,7.1-6.6,10c-2.9,2.9-6.2,5.1-10,6.6c-3.6,1.5-7.4,2.2-11.3,2.2
		c-3.9,0-7.7-0.8-11.4-2.2c-2.3-0.9-4.8-0.9-7,0c-1.4,0.6-2.7,1.6-3.6,2.7c-1.8,1.7-7.4,7.4-7.4,7.4c3.8,3.1,7.4,5.1,10.7,6.6
		c0,0,0.3,0.2,0.5,0.2c5.8,2.3,12,3.5,18.2,3.5c6.3,0,12.4-1.2,18.2-3.5c6-2.4,11.4-6,16.1-10.6c4.6-4.6,8.2-10,10.6-16.1
		c2.3-5.8,3.5-11.9,3.5-18.2c0-6.4-1.2-12.5-3.7-18.2C452.4,111.3,450.9,108.7,449,106.1z"/>
</g>
</svg>
