<?xml version="1.0" encoding="utf-8"?>
<!-- Generator: Adobe Illustrator 21.1.0, SVG Export Plug-In . SVG Version: 6.00 Build 0)  -->
<svg version="1.1" xmlns="http://www.w3.org/2000/svg" xmlns:xlink="http://www.w3.org/1999/xlink" x="0px" y="0px"
	 viewBox="0 0 253.9 106.9" style="enable-background:new 0 0 253.9 106.9;" xml:space="preserve">
<style type="text/css">
	.st0{fill:#FFFFFF;}
	.st1{fill:none;}
	.st2{fill:#FEA621;}
	.st3{fill:#82027E;}
	.st4{font-family:'Phosphate-Solid';}
	.st5{font-size:19.6069px;}
</style>
<g id="Layer_2">
</g>
<g id="Layer_1">
	<g>
		<path class="st0" d="M20.9,1.2c6,0,11.9,0,17.9,0c3.3,0,6.3,0.4,9.2,1.3s5.2,2.2,7.3,3.8c2.1,1.7,3.7,3.8,4.8,6.3
			c1.2,2.5,1.7,5.5,1.7,8.6c0,2.6-0.3,4.8-1.1,6.5c-0.8,1.7-1.5,3.3-2.4,4.4c-1,1.3-2.2,2.4-3.5,3.3c3.3,5.7,6.4,11.6,9.7,17.5
			c-6.4-0.5-13-0.8-19.4-0.9c-2.6-4.4-5.1-8.6-7.8-12.9c0,4.3,0,8.6,0,12.9c-5.6,0.1-11,0.3-16.6,0.8C20.9,35.7,20.9,18.5,20.9,1.2z
			 M37.5,26.3c0.3,0,0.5,0,0.9,0c2,0,3.6-0.4,5-1.3c1.4-0.9,2.1-2.3,2.1-4.4s-0.7-3.5-2.1-4.4c-1.4-0.9-3.1-1.3-5-1.3
			c-0.3,0-0.5,0-0.9,0C37.5,18.7,37.5,22.5,37.5,26.3z"/>
		<path class="st1" d="M20.9,1.2c6,0,11.9,0,17.9,0c3.3,0,6.3,0.4,9.2,1.3s5.2,2.2,7.3,3.8c2.1,1.7,3.7,3.8,4.8,6.3
			c1.2,2.5,1.7,5.5,1.7,8.6c0,2.6-0.3,4.8-1.1,6.5c-0.8,1.7-1.5,3.3-2.4,4.4c-1,1.3-2.2,2.4-3.5,3.3c3.3,5.7,6.4,11.6,9.7,17.5
			c-6.4-0.5-13-0.8-19.4-0.9c-2.6-4.4-5.1-8.6-7.8-12.9c0,4.3,0,8.6,0,12.9c-5.6,0.1-11,0.3-16.6,0.8C20.9,35.7,20.9,18.5,20.9,1.2z
			 M37.5,26.3c0.3,0,0.5,0,0.9,0c2,0,3.6-0.4,5-1.3c1.4-0.9,2.1-2.3,2.1-4.4s-0.7-3.5-2.1-4.4c-1.4-0.9-3.1-1.3-5-1.3
			c-0.3,0-0.5,0-0.9,0C37.5,18.7,37.5,22.5,37.5,26.3z"/>
	</g>
	<g>
		<path class="st0" d="M66.2,1.2c10.2,0,20.3,0,30.6,0c0,4.5,0,9.1,0,13.5c-4.7-0.1-9.3-0.1-14-0.1c0,1.9,0,3.8,0,5.7
			c4.6,0,9.2,0.1,13.8,0.2c0,4.3,0,8.6,0,12.9c-4.6-0.2-9.2-0.3-13.8-0.3c0,2,0,3.9,0,5.9c4.8,0,9.7,0.2,14.5,0.4
			c0,4.6,0,9.1,0,13.6c-10.4-0.8-20.7-0.8-31.1,0C66.2,35.7,66.2,18.5,66.2,1.2z"/>
		<path class="st1" d="M66.2,1.2c10.2,0,20.3,0,30.6,0c0,4.5,0,9.1,0,13.5c-4.7-0.1-9.3-0.1-14-0.1c0,1.9,0,3.8,0,5.7
			c4.6,0,9.2,0.1,13.8,0.2c0,4.3,0,8.6,0,12.9c-4.6-0.2-9.2-0.3-13.8-0.3c0,2,0,3.9,0,5.9c4.8,0,9.7,0.2,14.5,0.4
			c0,4.6,0,9.1,0,13.6c-10.4-0.8-20.7-0.8-31.1,0C66.2,35.7,66.2,18.5,66.2,1.2z"/>
	</g>
	<g>
		<path class="st0" d="M108.8,14.6c-3.2,0-6.3,0.1-9.6,0.1c0-4.6,0-9.1,0-13.6c12.1,0,24.1,0,36.2,0c0,4.6,0,9.1,0,13.6
			c-3.2-0.1-6.3-0.1-9.6-0.1c0,12.6,0,25.2,0,37.8c-5.7-0.2-11.4-0.2-17.1,0C108.8,39.9,108.8,27.2,108.8,14.6z"/>
		<path class="st1" d="M108.8,14.6c-3.2,0-6.3,0.1-9.6,0.1c0-4.6,0-9.1,0-13.6c12.1,0,24.1,0,36.2,0c0,4.6,0,9.1,0,13.6
			c-3.2-0.1-6.3-0.1-9.6-0.1c0,12.6,0,25.2,0,37.8c-5.7-0.2-11.4-0.2-17.1,0C108.8,39.9,108.8,27.2,108.8,14.6z"/>
	</g>
	<g>
		<path class="st0" d="M138.2,1.2c6,0,11.9,0,17.9,0c3.3,0,6.3,0.4,9.2,1.3c2.8,0.9,5.2,2.2,7.3,3.8c2.1,1.7,3.7,3.8,4.8,6.3
			c1.2,2.5,1.7,5.5,1.7,8.6c0,2.6-0.3,4.8-1.1,6.5c-0.8,1.7-1.5,3.3-2.4,4.4c-1.1,1.3-2.2,2.4-3.5,3.3c3.3,5.7,6.4,11.6,9.7,17.5
			c-6.4-0.5-13-0.8-19.4-0.9c-2.6-4.4-5.1-8.6-7.8-12.9c0,4.3,0,8.6,0,12.9c-5.6,0.1-11,0.3-16.6,0.8
			C138.2,35.7,138.2,18.5,138.2,1.2z M154.8,26.3c0.3,0,0.5,0,0.9,0c2,0,3.6-0.4,5-1.3c1.4-0.9,2.1-2.3,2.1-4.4s-0.7-3.5-2.1-4.4
			c-1.4-0.9-3.1-1.3-5-1.3c-0.3,0-0.5,0-0.9,0C154.8,18.7,154.8,22.5,154.8,26.3z"/>
		<path class="st1" d="M138.2,1.2c6,0,11.9,0,17.9,0c3.3,0,6.3,0.4,9.2,1.3c2.8,0.9,5.2,2.2,7.3,3.8c2.1,1.7,3.7,3.8,4.8,6.3
			c1.2,2.5,1.7,5.5,1.7,8.6c0,2.6-0.3,4.8-1.1,6.5c-0.8,1.7-1.5,3.3-2.4,4.4c-1.1,1.3-2.2,2.4-3.5,3.3c3.3,5.7,6.4,11.6,9.7,17.5
			c-6.4-0.5-13-0.8-19.4-0.9c-2.6-4.4-5.1-8.6-7.8-12.9c0,4.3,0,8.6,0,12.9c-5.6,0.1-11,0.3-16.6,0.8
			C138.2,35.7,138.2,18.5,138.2,1.2z M154.8,26.3c0.3,0,0.5,0,0.9,0c2,0,3.6-0.4,5-1.3c1.4-0.9,2.1-2.3,2.1-4.4s-0.7-3.5-2.1-4.4
			c-1.4-0.9-3.1-1.3-5-1.3c-0.3,0-0.5,0-0.9,0C154.8,18.7,154.8,22.5,154.8,26.3z"/>
	</g>
	<g>
		<g>
			<path class="st0" d="M10.6,77.2c0.7,0.2,1.3,0.3,2,0.3c0.5,0.1,1.2,0.2,2,0.2c0.8,0,1.5,0,2.2,0c1.3-0.1,2-0.5,2-1.5
				c0-0.3-0.2-0.8-0.7-1.1c-0.4-0.3-0.9-0.8-1.5-1.2c-0.7-0.4-1.3-1-2-1.5c-0.7-0.5-1.4-1.2-2-1.9C11.9,69.8,11.4,69,11,68
				c-0.4-0.9-0.7-2-0.7-3.2c0-1.3,0.2-2.5,0.8-3.6c0.4-1.1,1.2-2,2.1-2.6c0.9-0.7,1.9-1.2,3.1-1.5c1.2-0.3,2.4-0.5,3.7-0.5
				c0.7,0,1.4,0,2.1,0.1c0.7,0.1,1.3,0.1,1.9,0.2c0.7,0.1,1.3,0.1,1.9,0.2c0,2.6,0,5.2,0,7.9c-0.2,0-0.5,0-0.8-0.1
				c-0.2,0-0.5,0-0.8-0.1c-0.3,0-0.5,0-0.9,0c-0.2,0-0.4,0-0.7,0c-0.2,0-0.5,0.1-0.8,0.1c-0.2,0.1-0.4,0.1-0.7,0.3
				C21,65.3,21,65.5,21,65.7s0.2,0.5,0.5,0.9c0.4,0.3,0.9,0.7,1.4,1.1c0.5,0.4,1.2,1,1.9,1.5c0.7,0.5,1.3,1.2,1.9,2s1.1,1.5,1.4,2.5
				c0.4,0.9,0.5,2,0.5,3.2s-0.2,2.4-0.7,3.5c-0.4,1.1-1,2.1-1.9,2.9s-2,1.5-3.3,2.1c-1.3,0.5-2.9,0.9-4.7,1
				c-1.1,0.1-2.1,0.1-3.1,0.1s-1.7-0.1-2.5-0.2c-0.9-0.1-1.6-0.2-2.3-0.3C10.6,83,10.6,80.1,10.6,77.2z"/>
			<path class="st0" d="M53.3,67.3c0,1.9-0.3,3.4-1.1,4.7c-0.7,1.3-1.6,2.4-2.8,3.2c-1.2,0.9-2.6,1.5-4.3,2s-3.4,0.7-5.1,0.8
				c0,2.2,0,4.3,0,6.4c-3.1,0.2-6.1,0.3-9.3,0.5c0-9.2,0-18.3,0-27.6c3.1,0,6.1,0,9.3,0c1.9,0,3.6,0.2,5.1,0.5
				c1.6,0.3,3.1,1,4.3,1.7c1.2,0.8,2.2,1.9,2.8,3.1C53,63.9,53.3,65.4,53.3,67.3z M40,70.5c0.1,0,0.2,0,0.4,0c1.2,0,2.1-0.3,2.6-0.9
				c0.5-0.5,0.8-1.3,0.8-2.2c0-1-0.2-1.6-0.8-2.2c-0.5-0.5-1.4-0.8-2.6-0.8c-0.1,0-0.2,0-0.4,0C40,66.5,40,68.6,40,70.5z"/>
			<path class="st0" d="M55.5,57.1c3.3,0,6.5,0,9.8,0c0,8.6,0,17.4,0,26c-3.3,0.1-6.5,0.2-9.8,0.4C55.5,74.8,55.5,66,55.5,57.1z"/>
			<path class="st0" d="M68.3,57.1c3.2,0,6.4,0,9.6,0c0,6.3,0,12.6,0,18.9c2.6-0.1,5.3-0.1,8-0.2c0,2.2,0,4.5,0,6.7
				C80,82.5,74.1,82.8,68.3,83C68.3,74.4,68.3,65.7,68.3,57.1z"/>
			<path class="st0" d="M87.5,57.1c3.2,0,6.4,0,9.6,0c0,6.2,0,12.3,0,18.6c2.6,0,5.3-0.1,8-0.1c0,2.2,0,4.4,0,6.5
				c-5.9,0.1-11.8,0.2-17.6,0.3C87.4,74,87.5,65.5,87.5,57.1z"/>
			<path class="st0" d="M106.6,57c2.5,0,5.1,0,7.6,0c2.5,3.2,5,6.3,7.5,9.6c2.5-3.2,5-6.3,7.5-9.6c2.5,0,5.1,0,7.6,0
				c0,8.3,0,16.6,0,25c-3.1,0-6.1,0-9.3,0c0-2.9,0-6,0-9c-2,2.5-3.9,5-5.9,7.5c-2-2.5-3.9-5-5.9-7.4c0,2.9,0,6,0,9
				c-3.1,0-6.1,0-9.3,0.1C106.6,73.7,106.6,65.4,106.6,57z"/>
			<path class="st0" d="M139.9,57c5.7,0,11.4,0,17,0c0,2.2,0,4.4,0,6.7c-2.6,0-5.2,0-7.9,0c0,0.9,0,1.9,0,2.7c2.5,0,5.1,0,7.6,0
				c0,2.1,0,4.1,0,6.2c-2.5,0-5.1-0.1-7.6-0.1c0,1,0,2,0,2.9c2.7,0,5.5,0.1,8.1,0.1c0,2.2,0,4.4,0,6.7c-5.8-0.1-11.6-0.2-17.4-0.2
				C139.9,73.7,139.9,65.4,139.9,57z"/>
			<path class="st0" d="M158.7,74.5c0.7,0.2,1.3,0.3,2,0.4c0.5,0.1,1.2,0.2,2,0.3c0.8,0.1,1.5,0.1,2.2,0.1c1.3,0,2-0.4,2-1.3
				c0-0.3-0.2-0.7-0.7-1c-0.4-0.3-0.9-0.8-1.5-1.2c-0.7-0.4-1.3-0.9-2-1.4s-1.4-1.1-2-1.7c-0.7-0.7-1.1-1.4-1.5-2.2
				c-0.4-0.9-0.7-1.7-0.7-2.8c0-1.2,0.2-2.2,0.8-3.2c0.4-0.9,1.2-1.6,2.1-2.3s1.9-1.1,3.1-1.4c1.2-0.3,2.4-0.4,3.7-0.4
				c0.7,0,1.4,0,2.1,0.1c0.7,0.1,1.3,0.1,1.9,0.2c0.7,0.1,1.3,0.1,1.9,0.2c0,2.4,0,4.8,0,7.2c-0.2,0-0.5-0.1-0.8-0.1
				s-0.5-0.1-0.8-0.1c-0.3,0-0.5,0-0.9,0c-0.2,0-0.4,0-0.7,0c-0.2,0-0.5,0-0.8,0.1c-0.2,0-0.4,0.1-0.7,0.2s-0.2,0.3-0.2,0.5
				c0,0.2,0.2,0.4,0.5,0.8c0.4,0.3,0.9,0.7,1.4,1.1s1.2,0.9,1.9,1.4c0.7,0.5,1.3,1.2,1.9,1.9c0.5,0.7,1.1,1.5,1.4,2.4
				c0.4,0.9,0.5,1.9,0.5,2.9c0,1.1-0.2,2.2-0.7,3.2c-0.4,1-1,1.9-1.9,2.5c-0.9,0.7-2,1.2-3.3,1.6s-2.9,0.5-4.7,0.5
				c-1.1,0-2.1-0.1-3.1-0.2c-1-0.1-1.7-0.2-2.5-0.3c-0.9-0.1-1.6-0.3-2.3-0.5C158.7,79.5,158.7,77,158.7,74.5z"/>
			<path class="st0" d="M178,74.8c0.7,0.2,1.3,0.3,2,0.4c0.5,0.1,1.2,0.2,2,0.3c0.8,0.1,1.5,0.1,2.2,0.2c1.3,0,2-0.4,2-1.3
				c0-0.3-0.2-0.7-0.7-1.1c-0.4-0.3-0.9-0.8-1.5-1.2c-0.7-0.4-1.3-0.9-2-1.4c-0.7-0.5-1.4-1.1-2-1.9c-0.7-0.7-1.1-1.4-1.5-2.3
				c-0.4-0.9-0.7-1.7-0.7-2.8c0-1.2,0.2-2.3,0.8-3.2c0.4-0.9,1.2-1.6,2.1-2.3c0.9-0.7,1.9-1.1,3.1-1.4s2.4-0.4,3.7-0.4
				c0.7,0,1.4,0,2.1,0.1c0.7,0.1,1.3,0.1,1.9,0.2c0.7,0.1,1.3,0.1,1.9,0.2c0,2.4,0,4.9,0,7.3c-0.2,0-0.5-0.1-0.8-0.1
				c-0.2,0-0.5-0.1-0.8-0.1c-0.3,0-0.5,0-0.9,0c-0.2,0-0.4,0-0.7,0c-0.2,0-0.5,0-0.8,0.1c-0.2,0-0.4,0.1-0.7,0.2
				c-0.2,0.1-0.2,0.3-0.2,0.5c0,0.2,0.2,0.4,0.5,0.8c0.4,0.3,0.9,0.7,1.4,1.1c0.5,0.4,1.2,0.9,1.9,1.5c0.7,0.5,1.3,1.2,1.9,2
				c0.5,0.8,1.1,1.5,1.4,2.4c0.4,0.9,0.5,1.9,0.5,3.1c0,1.2-0.2,2.2-0.7,3.3c-0.4,1-1,1.9-1.9,2.6c-0.9,0.8-2,1.3-3.3,1.6
				s-2.9,0.5-4.7,0.4c-1.1,0-2.1-0.1-3.1-0.2c-1-0.1-1.7-0.2-2.5-0.4c-0.9-0.1-1.6-0.3-2.3-0.5C178,79.9,178,77.4,178,74.8z"/>
			<path class="st0" d="M198.2,57.1c5.7,0,11.4,0,17,0.1c0,2.4,0,4.8,0,7.1c-2.6,0-5.2-0.1-7.8-0.1c0,1,0,2,0,2.9
				c2.5,0,5.1,0.1,7.6,0.2c0,2.3,0,4.5,0,6.8c-2.5-0.1-5.1-0.2-7.6-0.2c0,1,0,2.1,0,3.1c2.7,0.1,5.5,0.2,8.1,0.3c0,2.4,0,4.8,0,7.1
				c-5.8-0.3-11.6-0.7-17.4-0.9C198.3,74.8,198.3,66,198.2,57.1z"/>
			<path class="st0" d="M218.2,57.2c2.5,0,5,0,7.6,0c2.6,3.6,5.3,7.2,8,10.9c0-3.6,0-7.2,0-10.9c3.1,0,6,0,9.1,0
				c0,9.6,0,19.2,0,28.8c-2.5-0.2-5.1-0.3-7.6-0.5c-2.6-3.8-5.2-7.5-8-11.2c0,3.6,0,7.1,0,10.7c-3.1-0.2-6-0.3-9.1-0.5
				C218.2,75.4,218.2,66.4,218.2,57.2z"/>
		</g>
	</g>
	<g>
		<path class="st2" d="M211.8,26.8c8-1.5,16-2.9,24-4.3c-0.3-2.1-0.9-4-1.7-6c-1.4-3.4-3.4-6.2-5.8-8.7c-2.5-2.5-5.3-4.4-8.6-5.8
			s-6.9-2.1-10.6-2.1s-7.2,0.7-10.6,2.1c-3.3,1.4-6.2,3.3-8.6,5.8c-2.5,2.5-4.4,5.3-5.8,8.7c-1.4,3.4-2.2,6.9-2.2,10.6
			s0.8,7.2,2.2,10.5c1.4,3.3,3.4,6,5.8,8.3c2.5,2.3,5.3,4.1,8.6,5.5s6.9,2,10.6,2s7.2-0.7,10.6-2c3.3-1.3,6.2-3.1,8.6-5.5
			c2.4-2.2,4.3-4.9,5.7-8C226.7,34.1,219.3,30.4,211.8,26.8z"/>
		<path class="st1" d="M211.8,26.8c8-1.5,16-2.9,24-4.3c-0.3-2.1-0.9-4-1.7-6c-1.4-3.4-3.4-6.2-5.8-8.7c-2.5-2.5-5.3-4.4-8.6-5.8
			s-6.9-2.1-10.6-2.1s-7.2,0.7-10.6,2.1c-3.3,1.4-6.2,3.3-8.6,5.8c-2.5,2.5-4.4,5.3-5.8,8.7c-1.4,3.4-2.2,6.9-2.2,10.6
			s0.8,7.2,2.2,10.5c1.4,3.3,3.4,6,5.8,8.3c2.5,2.3,5.3,4.1,8.6,5.5s6.9,2,10.6,2s7.2-0.7,10.6-2c3.3-1.3,6.2-3.1,8.6-5.5
			c2.4-2.2,4.3-4.9,5.7-8C226.7,34.1,219.3,30.4,211.8,26.8z"/>
	</g>
	<path class="st0" d="M179.9,106.7H71.5c-4.8,0-8.6-3.9-8.6-8.6l0,0c0-4.8,3.9-8.6,8.6-8.6h108.3c4.8,0,8.6,3.9,8.6,8.6l0,0
		C188.5,102.7,184.6,106.7,179.9,106.7z"/>
	<text transform="matrix(1 0 0 1 72.6011 104.823)" class="st3 st4 st5">comic con</text>
</g>
</svg>
