<?xml version="1.0" encoding="utf-8"?>
<!-- Generator: Adobe Illustrator 21.1.0, SVG Export Plug-In . SVG Version: 6.00 Build 0)  -->
<svg version="1.1" id="Layer_1" xmlns="http://www.w3.org/2000/svg" xmlns:xlink="http://www.w3.org/1999/xlink" x="0px" y="0px"
	 viewBox="0 0 253.9 106.9" style="enable-background:new 0 0 253.9 106.9;" xml:space="preserve">
<style type="text/css">
	.st0{fill:#4A017D;}
	.st1{fill:none;stroke:#4A017D;stroke-width:2.8346;stroke-miterlimit:10;}
	.st2{fill:#4A017D;stroke:#4A017D;stroke-width:2.8346;stroke-miterlimit:10;}
	.st3{fill:#FFFFFF;}
	.st4{fill:#FFFFFF;stroke:#4A017D;stroke-width:2.8346;stroke-miterlimit:10;}
	.st5{fill:#FEA621;}
	.st6{fill:#82027E;}
	.st7{font-family:'Phosphate-Solid';}
	.st8{font-size:17.9616px;}
</style>
<g>
	<g>
		<g>
			<path class="st0" d="M29.1,10.6c5.5,0,10.9,0,16.4,0c3,0,5.8,0.4,8.4,1.2c2.6,0.8,4.8,2,6.7,3.5c1.9,1.6,3.4,3.5,4.4,5.8
				c1.1,2.3,1.6,5,1.6,7.9c0,2.4-0.3,4.4-1,6c-0.7,1.6-1.4,3-2.2,4c-0.9,1.2-2,2.2-3.2,3c3,5.2,5.9,10.6,8.9,16
				c-5.9-0.5-11.9-0.7-17.8-0.8c-2.4-4-4.7-7.9-7.1-11.8c0,3.9,0,7.9,0,11.8c-5.1,0.1-10.1,0.3-15.2,0.7
				C29.1,42.2,29.1,26.4,29.1,10.6z M44.3,33.5c0.3,0,0.5,0,0.8,0c1.8,0,3.3-0.4,4.6-1.2c1.3-0.8,1.9-2.1,1.9-4c0-1.9-0.6-3.2-1.9-4
				c-1.3-0.8-2.8-1.2-4.6-1.2c-0.3,0-0.5,0-0.8,0C44.3,26.6,44.3,30.1,44.3,33.5z"/>
			<path class="st1" d="M29.1,10.6c5.5,0,10.9,0,16.4,0c3,0,5.8,0.4,8.4,1.2c2.6,0.8,4.8,2,6.7,3.5c1.9,1.6,3.4,3.5,4.4,5.8
				c1.1,2.3,1.6,5,1.6,7.9c0,2.4-0.3,4.4-1,6c-0.7,1.6-1.4,3-2.2,4c-0.9,1.2-2,2.2-3.2,3c3,5.2,5.9,10.6,8.9,16
				c-5.9-0.5-11.9-0.7-17.8-0.8c-2.4-4-4.7-7.9-7.1-11.8c0,3.9,0,7.9,0,11.8c-5.1,0.1-10.1,0.3-15.2,0.7
				C29.1,42.2,29.1,26.4,29.1,10.6z M44.3,33.5c0.3,0,0.5,0,0.8,0c1.8,0,3.3-0.4,4.6-1.2c1.3-0.8,1.9-2.1,1.9-4c0-1.9-0.6-3.2-1.9-4
				c-1.3-0.8-2.8-1.2-4.6-1.2c-0.3,0-0.5,0-0.8,0C44.3,26.6,44.3,30.1,44.3,33.5z"/>
		</g>
		<g>
			<path class="st0" d="M70.6,10.6c9.3,0,18.6,0,28,0c0,4.1,0,8.3,0,12.4c-4.3-0.1-8.5-0.1-12.8-0.1c0,1.7,0,3.5,0,5.2
				c4.2,0,8.4,0.1,12.6,0.2c0,3.9,0,7.9,0,11.8c-4.2-0.2-8.4-0.3-12.6-0.3c0,1.8,0,3.6,0,5.4c4.4,0,8.9,0.2,13.3,0.4
				c0,4.2,0,8.3,0,12.5c-9.5-0.7-19-0.7-28.5,0C70.6,42.2,70.6,26.4,70.6,10.6z"/>
			<path class="st1" d="M70.6,10.6c9.3,0,18.6,0,28,0c0,4.1,0,8.3,0,12.4c-4.3-0.1-8.5-0.1-12.8-0.1c0,1.7,0,3.5,0,5.2
				c4.2,0,8.4,0.1,12.6,0.2c0,3.9,0,7.9,0,11.8c-4.2-0.2-8.4-0.3-12.6-0.3c0,1.8,0,3.6,0,5.4c4.4,0,8.9,0.2,13.3,0.4
				c0,4.2,0,8.3,0,12.5c-9.5-0.7-19-0.7-28.5,0C70.6,42.2,70.6,26.4,70.6,10.6z"/>
		</g>
		<g>
			<path class="st0" d="M109.6,22.9c-2.9,0-5.8,0.1-8.8,0.1c0-4.2,0-8.3,0-12.5c11.1,0,22.1,0,33.2,0c0,4.2,0,8.3,0,12.5
				c-2.9-0.1-5.8-0.1-8.8-0.1c0,11.5,0,23.1,0,34.6c-5.2-0.2-10.4-0.2-15.7,0C109.6,46,109.6,34.4,109.6,22.9z"/>
			<path class="st1" d="M109.6,22.9c-2.9,0-5.8,0.1-8.8,0.1c0-4.2,0-8.3,0-12.5c11.1,0,22.1,0,33.2,0c0,4.2,0,8.3,0,12.5
				c-2.9-0.1-5.8-0.1-8.8-0.1c0,11.5,0,23.1,0,34.6c-5.2-0.2-10.4-0.2-15.7,0C109.6,46,109.6,34.4,109.6,22.9z"/>
		</g>
		<g>
			<path class="st0" d="M136.5,10.6c5.5,0,10.9,0,16.4,0c3,0,5.8,0.4,8.4,1.2c2.6,0.8,4.8,2,6.7,3.5c1.9,1.6,3.4,3.5,4.4,5.8
				c1.1,2.3,1.6,5,1.6,7.9c0,2.4-0.3,4.4-1,6c-0.7,1.6-1.4,3-2.2,4c-0.9,1.2-2,2.2-3.2,3c3,5.2,5.9,10.6,8.9,16
				c-5.9-0.5-11.9-0.7-17.8-0.8c-2.4-4-4.7-7.9-7.1-11.8c0,3.9,0,7.9,0,11.8c-5.1,0.1-10.1,0.3-15.2,0.7
				C136.5,42.2,136.5,26.4,136.5,10.6z M151.7,33.5c0.3,0,0.5,0,0.8,0c1.8,0,3.3-0.4,4.6-1.2c1.3-0.8,1.9-2.1,1.9-4
				c0-1.9-0.6-3.2-1.9-4c-1.3-0.8-2.8-1.2-4.6-1.2c-0.3,0-0.5,0-0.8,0C151.7,26.6,151.7,30.1,151.7,33.5z"/>
			<path class="st1" d="M136.5,10.6c5.5,0,10.9,0,16.4,0c3,0,5.8,0.4,8.4,1.2c2.6,0.8,4.8,2,6.7,3.5c1.9,1.6,3.4,3.5,4.4,5.8
				c1.1,2.3,1.6,5,1.6,7.9c0,2.4-0.3,4.4-1,6c-0.7,1.6-1.4,3-2.2,4c-0.9,1.2-2,2.2-3.2,3c3,5.2,5.9,10.6,8.9,16
				c-5.9-0.5-11.9-0.7-17.8-0.8c-2.4-4-4.7-7.9-7.1-11.8c0,3.9,0,7.9,0,11.8c-5.1,0.1-10.1,0.3-15.2,0.7
				C136.5,42.2,136.5,26.4,136.5,10.6z M151.7,33.5c0.3,0,0.5,0,0.8,0c1.8,0,3.3-0.4,4.6-1.2c1.3-0.8,1.9-2.1,1.9-4
				c0-1.9-0.6-3.2-1.9-4c-1.3-0.8-2.8-1.2-4.6-1.2c-0.3,0-0.5,0-0.8,0C151.7,26.6,151.7,30.1,151.7,33.5z"/>
		</g>
		<g>
			<g>
				<path class="st2" d="M19.6,80.2c0.6,0.2,1.2,0.3,1.8,0.3c0.5,0.1,1.1,0.2,1.8,0.2c0.7,0,1.4,0,2,0c1.2-0.1,1.8-0.5,1.8-1.4
					c0-0.3-0.2-0.7-0.6-1c-0.4-0.3-0.8-0.7-1.4-1.1c-0.6-0.4-1.2-0.9-1.8-1.4c-0.6-0.5-1.3-1.1-1.8-1.7c-0.6-0.7-1-1.4-1.4-2.3
					c-0.4-0.8-0.6-1.8-0.6-2.9c0-1.2,0.2-2.3,0.7-3.3c0.4-1,1.1-1.8,1.9-2.4c0.8-0.6,1.7-1.1,2.8-1.4c1.1-0.3,2.2-0.5,3.4-0.5
					c0.6,0,1.3,0,1.9,0.1c0.6,0.1,1.2,0.1,1.7,0.2c0.6,0.1,1.2,0.1,1.7,0.2c0,2.4,0,4.8,0,7.2c-0.2,0-0.5,0-0.7-0.1
					c-0.2,0-0.5,0-0.7-0.1c-0.3,0-0.5,0-0.8,0c-0.2,0-0.4,0-0.6,0c-0.2,0-0.5,0.1-0.7,0.1c-0.2,0.1-0.4,0.1-0.6,0.3
					c-0.2,0.1-0.2,0.3-0.2,0.5c0,0.2,0.2,0.5,0.5,0.8c0.4,0.3,0.8,0.6,1.3,1c0.5,0.4,1.1,0.9,1.7,1.4c0.6,0.5,1.2,1.1,1.7,1.8
					c0.5,0.7,1,1.4,1.3,2.3c0.4,0.8,0.5,1.8,0.5,2.9c0,1.1-0.2,2.2-0.6,3.2c-0.4,1-0.9,1.9-1.7,2.7c-0.8,0.8-1.8,1.4-3,1.9
					c-1.2,0.5-2.7,0.8-4.3,0.9c-1,0.1-1.9,0.1-2.8,0.1c-0.9,0-1.6-0.1-2.3-0.2c-0.8-0.1-1.5-0.2-2.1-0.3
					C19.6,85.5,19.6,82.8,19.6,80.2z"/>
				<path class="st2" d="M58.8,71.1c0,1.7-0.3,3.1-1,4.3c-0.6,1.2-1.5,2.2-2.6,2.9c-1.1,0.8-2.4,1.4-3.9,1.8
					c-1.5,0.4-3.1,0.6-4.7,0.7c0,2,0,3.9,0,5.9c-2.8,0.2-5.6,0.3-8.5,0.5c0-8.4,0-16.8,0-25.3c2.8,0,5.6,0,8.5,0
					c1.7,0,3.3,0.2,4.7,0.5c1.5,0.3,2.8,0.9,3.9,1.6c1.1,0.7,2,1.7,2.6,2.8C58.5,68,58.8,69.4,58.8,71.1z M46.6,74.1
					c0.1,0,0.2,0,0.4,0c1.1,0,1.9-0.3,2.4-0.8c0.5-0.5,0.7-1.2,0.7-2c0-0.9-0.2-1.5-0.7-2c-0.5-0.5-1.3-0.7-2.4-0.7
					c-0.1,0-0.2,0-0.4,0C46.7,70.4,46.7,72.2,46.6,74.1z"/>
				<path class="st2" d="M60.8,61.8c3,0,6,0,9,0c0,7.9,0,15.9,0,23.8c-3,0.1-6,0.2-9,0.4C60.8,77.9,60.8,69.9,60.8,61.8z"/>
				<path class="st2" d="M72.6,61.8c2.9,0,5.9,0,8.8,0c0,5.8,0,11.5,0,17.3c2.4-0.1,4.9-0.1,7.3-0.2c0,2,0,4.1,0,6.1
					c-5.4,0.1-10.8,0.3-16.1,0.5C72.5,77.6,72.5,69.7,72.6,61.8z"/>
				<path class="st2" d="M90.1,61.8c2.9,0,5.9,0,8.8,0c0,5.7,0,11.3,0,17c2.4,0,4.9-0.1,7.3-0.1c0,2,0,4,0,6
					c-5.4,0.1-10.8,0.2-16.1,0.3C90.1,77.2,90.1,69.5,90.1,61.8z"/>
				<path class="st2" d="M107.6,61.7c2.3,0,4.7,0,7,0c2.3,2.9,4.6,5.8,6.9,8.8c2.3-2.9,4.6-5.8,6.9-8.8c2.3,0,4.7,0,7,0
					c0,7.6,0,15.2,0,22.9c-2.8,0-5.6,0-8.5,0c0-2.7,0-5.5,0-8.2c-1.8,2.3-3.6,4.6-5.4,6.9c-1.8-2.3-3.6-4.6-5.4-6.8
					c0,2.7,0,5.5,0,8.2c-2.8,0-5.6,0-8.5,0.1C107.6,77,107.6,69.4,107.6,61.7z"/>
				<path class="st2" d="M138.1,61.7c5.2,0,10.4,0,15.6,0c0,2,0,4,0,6.1c-2.4,0-4.8,0-7.2,0c0,0.8,0,1.7,0,2.5c2.3,0,4.7,0,7,0
					c0,1.9,0,3.8,0,5.7c-2.3,0-4.7-0.1-7-0.1c0,0.9,0,1.8,0,2.7c2.5,0,5,0.1,7.4,0.1c0,2,0,4,0,6.1c-5.3-0.1-10.6-0.2-15.9-0.2
					C138.1,77,138.1,69.4,138.1,61.7z"/>
				<path class="st2" d="M155.3,77.7c0.6,0.2,1.2,0.3,1.8,0.4c0.5,0.1,1.1,0.2,1.8,0.3c0.7,0.1,1.4,0.1,2,0.1c1.2,0,1.8-0.4,1.8-1.2
					c0-0.3-0.2-0.6-0.6-0.9c-0.4-0.3-0.8-0.7-1.4-1.1c-0.6-0.4-1.2-0.8-1.8-1.3c-0.6-0.5-1.3-1-1.8-1.6c-0.6-0.6-1-1.3-1.4-2
					c-0.4-0.8-0.6-1.6-0.6-2.6c0-1.1,0.2-2,0.7-2.9c0.4-0.8,1.1-1.5,1.9-2.1c0.8-0.6,1.7-1,2.8-1.3c1.1-0.3,2.2-0.4,3.4-0.4
					c0.6,0,1.3,0,1.9,0.1c0.6,0.1,1.2,0.1,1.7,0.2c0.6,0.1,1.2,0.1,1.7,0.2c0,2.2,0,4.4,0,6.6c-0.2,0-0.5-0.1-0.7-0.1
					c-0.2,0-0.5-0.1-0.7-0.1c-0.3,0-0.5,0-0.8,0c-0.2,0-0.4,0-0.6,0c-0.2,0-0.5,0-0.7,0.1c-0.2,0-0.4,0.1-0.6,0.2
					c-0.2,0.1-0.2,0.3-0.2,0.5c0,0.2,0.2,0.4,0.5,0.7c0.4,0.3,0.8,0.6,1.3,1c0.5,0.4,1.1,0.8,1.7,1.3c0.6,0.5,1.2,1.1,1.7,1.7
					c0.5,0.6,1,1.4,1.3,2.2c0.4,0.8,0.5,1.7,0.5,2.7c0,1-0.2,2-0.6,2.9c-0.4,0.9-0.9,1.7-1.7,2.3c-0.8,0.6-1.8,1.1-3,1.5
					c-1.2,0.4-2.7,0.5-4.3,0.5c-1,0-1.9-0.1-2.8-0.2c-0.9-0.1-1.6-0.2-2.3-0.3c-0.8-0.1-1.5-0.3-2.1-0.5
					C155.3,82.3,155.3,80,155.3,77.7z"/>
				<path class="st2" d="M173,78c0.6,0.2,1.2,0.3,1.8,0.4c0.5,0.1,1.1,0.2,1.8,0.3c0.7,0.1,1.4,0.1,2,0.2c1.2,0,1.8-0.4,1.8-1.2
					c0-0.3-0.2-0.6-0.6-1c-0.4-0.3-0.8-0.7-1.4-1.1c-0.6-0.4-1.2-0.8-1.8-1.3c-0.6-0.5-1.3-1-1.8-1.7c-0.6-0.6-1-1.3-1.4-2.1
					c-0.4-0.8-0.6-1.6-0.6-2.6c0-1.1,0.2-2.1,0.7-2.9c0.4-0.8,1.1-1.5,1.9-2.1c0.8-0.6,1.7-1,2.8-1.3c1.1-0.3,2.2-0.4,3.4-0.4
					c0.6,0,1.3,0,1.9,0.1c0.6,0.1,1.2,0.1,1.7,0.2c0.6,0.1,1.2,0.1,1.7,0.2c0,2.2,0,4.5,0,6.7c-0.2,0-0.5-0.1-0.7-0.1
					c-0.2,0-0.5-0.1-0.7-0.1c-0.3,0-0.5,0-0.8,0c-0.2,0-0.4,0-0.6,0c-0.2,0-0.5,0-0.7,0.1c-0.2,0-0.4,0.1-0.6,0.2
					c-0.2,0.1-0.2,0.3-0.2,0.5c0,0.2,0.2,0.4,0.5,0.7c0.4,0.3,0.8,0.6,1.3,1c0.5,0.4,1.1,0.8,1.7,1.4c0.6,0.5,1.2,1.1,1.7,1.8
					c0.5,0.7,1,1.4,1.3,2.2c0.4,0.8,0.5,1.7,0.5,2.8c0,1.1-0.2,2-0.6,3c-0.4,0.9-0.9,1.7-1.7,2.4c-0.8,0.7-1.8,1.2-3,1.5
					c-1.2,0.3-2.7,0.5-4.3,0.4c-1,0-1.9-0.1-2.8-0.2c-0.9-0.1-1.6-0.2-2.3-0.4c-0.8-0.1-1.5-0.3-2.1-0.5C173,82.7,173,80.4,173,78z"
					/>
				<path class="st2" d="M191.6,61.8c5.2,0,10.4,0,15.6,0.1c0,2.2,0,4.4,0,6.5c-2.4,0-4.8-0.1-7.1-0.1c0,0.9,0,1.8,0,2.7
					c2.3,0,4.7,0.1,7,0.2c0,2.1,0,4.1,0,6.2c-2.3-0.1-4.7-0.2-7-0.2c0,0.9,0,1.9,0,2.8c2.5,0.1,5,0.2,7.4,0.3c0,2.2,0,4.4,0,6.5
					c-5.3-0.3-10.6-0.6-15.9-0.8C191.6,78,191.6,69.9,191.6,61.8z"/>
				<path class="st2" d="M209.8,61.9c2.3,0,4.6,0,7,0c2.4,3.3,4.9,6.6,7.3,10c0-3.3,0-6.6,0-10c2.8,0,5.5,0,8.3,0
					c0,8.8,0,17.6,0,26.4c-2.3-0.2-4.7-0.3-7-0.5c-2.4-3.5-4.8-6.9-7.3-10.3c0,3.3,0,6.5,0,9.8c-2.8-0.2-5.5-0.3-8.3-0.5
					C209.8,78.6,209.8,70.2,209.8,61.9z"/>
			</g>
		</g>
		<g>
			<path class="st0" d="M204.1,34c7.3-1.4,14.7-2.7,22-3.9c-0.3-1.9-0.8-3.7-1.6-5.5c-1.3-3.1-3.1-5.7-5.3-8c-2.3-2.3-4.9-4-7.9-5.3
				c-3-1.3-6.3-1.9-9.7-1.9c-3.4,0-6.6,0.6-9.7,1.9c-3,1.3-5.7,3-7.9,5.3c-2.3,2.3-4,4.9-5.3,8c-1.3,3.1-2,6.3-2,9.7
				c0,3.4,0.7,6.6,2,9.6c1.3,3,3.1,5.5,5.3,7.6c2.3,2.1,4.9,3.8,7.9,5c3,1.2,6.3,1.8,9.7,1.8c3.4,0,6.6-0.6,9.7-1.8
				c3-1.2,5.7-2.8,7.9-5c2.2-2,3.9-4.5,5.2-7.3C217.6,40.6,210.8,37.3,204.1,34z"/>
			<path class="st1" d="M204.1,34c7.3-1.4,14.7-2.7,22-3.9c-0.3-1.9-0.8-3.7-1.6-5.5c-1.3-3.1-3.1-5.7-5.3-8c-2.3-2.3-4.9-4-7.9-5.3
				c-3-1.3-6.3-1.9-9.7-1.9c-3.4,0-6.6,0.6-9.7,1.9c-3,1.3-5.7,3-7.9,5.3c-2.3,2.3-4,4.9-5.3,8c-1.3,3.1-2,6.3-2,9.7
				c0,3.4,0.7,6.6,2,9.6c1.3,3,3.1,5.5,5.3,7.6c2.3,2.1,4.9,3.8,7.9,5c3,1.2,6.3,1.8,9.7,1.8c3.4,0,6.6-0.6,9.7-1.8
				c3-1.2,5.7-2.8,7.9-5c2.2-2,3.9-4.5,5.2-7.3C217.6,40.6,210.8,37.3,204.1,34z"/>
		</g>
	</g>
	<g>
		<g>
			<path class="st3" d="M27.6,4.7c5.5,0,10.9,0,16.4,0c3,0,5.8,0.4,8.4,1.2c2.6,0.8,4.8,2,6.7,3.5c1.9,1.6,3.4,3.5,4.4,5.8
				c1.1,2.3,1.6,5,1.6,7.9c0,2.4-0.3,4.4-1,6c-0.7,1.6-1.4,3-2.2,4c-0.9,1.2-2,2.2-3.2,3c3,5.2,5.9,10.6,8.9,16
				c-5.9-0.5-11.9-0.7-17.8-0.8c-2.4-4-4.7-7.9-7.1-11.8c0,3.9,0,7.9,0,11.8c-5.1,0.1-10.1,0.3-15.2,0.7
				C27.6,36.3,27.6,20.5,27.6,4.7z M42.8,27.7c0.3,0,0.5,0,0.8,0c1.8,0,3.3-0.4,4.6-1.2c1.3-0.8,1.9-2.1,1.9-4c0-1.9-0.6-3.2-1.9-4
				c-1.3-0.8-2.8-1.2-4.6-1.2c-0.3,0-0.5,0-0.8,0C42.8,20.7,42.8,24.2,42.8,27.7z"/>
			<path class="st1" d="M27.6,4.7c5.5,0,10.9,0,16.4,0c3,0,5.8,0.4,8.4,1.2c2.6,0.8,4.8,2,6.7,3.5c1.9,1.6,3.4,3.5,4.4,5.8
				c1.1,2.3,1.6,5,1.6,7.9c0,2.4-0.3,4.4-1,6c-0.7,1.6-1.4,3-2.2,4c-0.9,1.2-2,2.2-3.2,3c3,5.2,5.9,10.6,8.9,16
				c-5.9-0.5-11.9-0.7-17.8-0.8c-2.4-4-4.7-7.9-7.1-11.8c0,3.9,0,7.9,0,11.8c-5.1,0.1-10.1,0.3-15.2,0.7
				C27.6,36.3,27.6,20.5,27.6,4.7z M42.8,27.7c0.3,0,0.5,0,0.8,0c1.8,0,3.3-0.4,4.6-1.2c1.3-0.8,1.9-2.1,1.9-4c0-1.9-0.6-3.2-1.9-4
				c-1.3-0.8-2.8-1.2-4.6-1.2c-0.3,0-0.5,0-0.8,0C42.8,20.7,42.8,24.2,42.8,27.7z"/>
		</g>
		<g>
			<path class="st3" d="M69.1,4.7c9.3,0,18.6,0,28,0c0,4.1,0,8.3,0,12.4C92.8,17,88.6,17,84.3,17c0,1.7,0,3.5,0,5.2
				c4.2,0,8.4,0.1,12.6,0.2c0,3.9,0,7.9,0,11.8c-4.2-0.2-8.4-0.3-12.6-0.3c0,1.8,0,3.6,0,5.4c4.4,0,8.9,0.2,13.3,0.4
				c0,4.2,0,8.3,0,12.5c-9.5-0.7-19-0.7-28.5,0C69.1,36.3,69.1,20.5,69.1,4.7z"/>
			<path class="st1" d="M69.1,4.7c9.3,0,18.6,0,28,0c0,4.1,0,8.3,0,12.4C92.8,17,88.6,17,84.3,17c0,1.7,0,3.5,0,5.2
				c4.2,0,8.4,0.1,12.6,0.2c0,3.9,0,7.9,0,11.8c-4.2-0.2-8.4-0.3-12.6-0.3c0,1.8,0,3.6,0,5.4c4.4,0,8.9,0.2,13.3,0.4
				c0,4.2,0,8.3,0,12.5c-9.5-0.7-19-0.7-28.5,0C69.1,36.3,69.1,20.5,69.1,4.7z"/>
		</g>
		<g>
			<path class="st3" d="M108.1,17c-2.9,0-5.8,0.1-8.8,0.1c0-4.2,0-8.3,0-12.5c11.1,0,22.1,0,33.2,0c0,4.2,0,8.3,0,12.5
				c-2.9-0.1-5.8-0.1-8.8-0.1c0,11.5,0,23.1,0,34.6c-5.2-0.2-10.4-0.2-15.7,0C108.1,40.1,108.1,28.5,108.1,17z"/>
			<path class="st1" d="M108.1,17c-2.9,0-5.8,0.1-8.8,0.1c0-4.2,0-8.3,0-12.5c11.1,0,22.1,0,33.2,0c0,4.2,0,8.3,0,12.5
				c-2.9-0.1-5.8-0.1-8.8-0.1c0,11.5,0,23.1,0,34.6c-5.2-0.2-10.4-0.2-15.7,0C108.1,40.1,108.1,28.5,108.1,17z"/>
		</g>
		<g>
			<path class="st3" d="M135,4.7c5.5,0,10.9,0,16.4,0c3,0,5.8,0.4,8.4,1.2c2.6,0.8,4.8,2,6.7,3.5c1.9,1.6,3.4,3.5,4.4,5.8
				c1.1,2.3,1.6,5,1.6,7.9c0,2.4-0.3,4.4-1,6c-0.7,1.6-1.4,3-2.2,4c-1,1.2-2,2.2-3.2,3c3,5.2,5.9,10.6,8.9,16
				c-5.9-0.5-11.9-0.7-17.8-0.8c-2.4-4-4.7-7.9-7.1-11.8c0,3.9,0,7.9,0,11.8c-5.1,0.1-10.1,0.3-15.2,0.7C135,36.3,135,20.5,135,4.7z
				 M150.2,27.7c0.3,0,0.5,0,0.8,0c1.8,0,3.3-0.4,4.6-1.2c1.3-0.8,1.9-2.1,1.9-4c0-1.9-0.6-3.2-1.9-4c-1.3-0.8-2.8-1.2-4.6-1.2
				c-0.3,0-0.5,0-0.8,0C150.2,20.7,150.2,24.2,150.2,27.7z"/>
			<path class="st1" d="M135,4.7c5.5,0,10.9,0,16.4,0c3,0,5.8,0.4,8.4,1.2c2.6,0.8,4.8,2,6.7,3.5c1.9,1.6,3.4,3.5,4.4,5.8
				c1.1,2.3,1.6,5,1.6,7.9c0,2.4-0.3,4.4-1,6c-0.7,1.6-1.4,3-2.2,4c-1,1.2-2,2.2-3.2,3c3,5.2,5.9,10.6,8.9,16
				c-5.9-0.5-11.9-0.7-17.8-0.8c-2.4-4-4.7-7.9-7.1-11.8c0,3.9,0,7.9,0,11.8c-5.1,0.1-10.1,0.3-15.2,0.7C135,36.3,135,20.5,135,4.7z
				 M150.2,27.7c0.3,0,0.5,0,0.8,0c1.8,0,3.3-0.4,4.6-1.2c1.3-0.8,1.9-2.1,1.9-4c0-1.9-0.6-3.2-1.9-4c-1.3-0.8-2.8-1.2-4.6-1.2
				c-0.3,0-0.5,0-0.8,0C150.2,20.7,150.2,24.2,150.2,27.7z"/>
		</g>
		<g>
			<g>
				<path class="st4" d="M18.1,74.3c0.6,0.2,1.2,0.3,1.8,0.3c0.5,0.1,1.1,0.2,1.8,0.2c0.7,0,1.4,0,2,0c1.2-0.1,1.8-0.5,1.8-1.4
					c0-0.3-0.2-0.7-0.6-1c-0.4-0.3-0.8-0.7-1.4-1.1c-0.6-0.4-1.2-0.9-1.8-1.4c-0.6-0.5-1.3-1.1-1.8-1.7c-0.6-0.7-1-1.4-1.4-2.3
					c-0.4-0.8-0.6-1.8-0.6-2.9c0-1.2,0.2-2.3,0.7-3.3c0.4-1,1.1-1.8,1.9-2.4c0.8-0.6,1.7-1.1,2.8-1.4c1.1-0.3,2.2-0.5,3.4-0.5
					c0.6,0,1.3,0,1.9,0.1c0.6,0.1,1.2,0.1,1.7,0.2c0.6,0.1,1.2,0.1,1.7,0.2c0,2.4,0,4.8,0,7.2c-0.2,0-0.5,0-0.7-0.1
					c-0.2,0-0.5,0-0.7-0.1c-0.3,0-0.5,0-0.8,0c-0.2,0-0.4,0-0.6,0c-0.2,0-0.5,0.1-0.7,0.1c-0.2,0.1-0.4,0.1-0.6,0.3
					c-0.2,0.1-0.2,0.3-0.2,0.5c0,0.2,0.2,0.5,0.5,0.8c0.4,0.3,0.8,0.6,1.3,1c0.5,0.4,1.1,0.9,1.7,1.4c0.6,0.5,1.2,1.1,1.7,1.8
					c0.5,0.7,1,1.4,1.3,2.3c0.4,0.8,0.5,1.8,0.5,2.9c0,1.1-0.2,2.2-0.6,3.2c-0.4,1-0.9,1.9-1.7,2.7c-0.8,0.8-1.8,1.4-3,1.9
					c-1.2,0.5-2.7,0.8-4.3,0.9c-1,0.1-1.9,0.1-2.8,0.1c-0.9,0-1.6-0.1-2.3-0.2c-0.8-0.1-1.5-0.2-2.1-0.3
					C18.1,79.6,18.1,77,18.1,74.3z"/>
				<path class="st4" d="M57.3,65.2c0,1.7-0.3,3.1-1,4.3c-0.6,1.2-1.5,2.2-2.6,2.9c-1.1,0.8-2.4,1.4-3.9,1.8
					c-1.5,0.4-3.1,0.6-4.7,0.7c0,2,0,3.9,0,5.9c-2.8,0.2-5.6,0.3-8.5,0.5c0-8.4,0-16.8,0-25.3c2.8,0,5.6,0,8.5,0
					c1.7,0,3.3,0.2,4.7,0.5c1.5,0.3,2.8,0.9,3.9,1.6c1.1,0.7,2,1.7,2.6,2.8C57,62.1,57.3,63.5,57.3,65.2z M45.1,68.2
					c0.1,0,0.2,0,0.4,0c1.1,0,1.9-0.3,2.4-0.8c0.5-0.5,0.7-1.2,0.7-2c0-0.9-0.2-1.5-0.7-2c-0.5-0.5-1.3-0.7-2.4-0.7
					c-0.1,0-0.2,0-0.4,0C45.1,64.5,45.1,66.4,45.1,68.2z"/>
				<path class="st4" d="M59.3,55.9c3,0,6,0,9,0c0,7.9,0,15.9,0,23.8c-3,0.1-6,0.2-9,0.4C59.3,72.1,59.3,64,59.3,55.9z"/>
				<path class="st4" d="M71,55.9c2.9,0,5.9,0,8.8,0c0,5.8,0,11.5,0,17.3c2.4-0.1,4.9-0.1,7.3-0.2c0,2,0,4.1,0,6.1
					c-5.4,0.1-10.8,0.3-16.1,0.5C71,71.7,71,63.8,71,55.9z"/>
				<path class="st4" d="M88.6,55.9c2.9,0,5.9,0,8.8,0c0,5.7,0,11.3,0,17c2.4,0,4.9-0.1,7.3-0.1c0,2,0,4,0,6
					c-5.4,0.1-10.8,0.2-16.1,0.3C88.5,71.4,88.6,63.6,88.6,55.9z"/>
				<path class="st4" d="M106.1,55.8c2.3,0,4.7,0,7,0c2.3,2.9,4.6,5.8,6.9,8.8c2.3-2.9,4.6-5.8,6.9-8.8c2.3,0,4.7,0,7,0
					c0,7.6,0,15.2,0,22.9c-2.8,0-5.6,0-8.5,0c0-2.7,0-5.5,0-8.2c-1.8,2.3-3.6,4.6-5.4,6.9c-1.8-2.3-3.6-4.6-5.4-6.8
					c0,2.7,0,5.5,0,8.2c-2.8,0-5.6,0-8.5,0.1C106.1,71.1,106.1,63.5,106.1,55.8z"/>
				<path class="st4" d="M136.6,55.8c5.2,0,10.4,0,15.6,0c0,2,0,4,0,6.1c-2.4,0-4.8,0-7.2,0c0,0.8,0,1.7,0,2.5c2.3,0,4.7,0,7,0
					c0,1.9,0,3.8,0,5.7c-2.3,0-4.7-0.1-7-0.1c0,0.9,0,1.8,0,2.7c2.5,0,5,0.1,7.4,0.1c0,2,0,4,0,6.1c-5.3-0.1-10.6-0.2-15.9-0.2
					C136.6,71.1,136.6,63.5,136.6,55.8z"/>
				<path class="st4" d="M153.8,71.8c0.6,0.2,1.2,0.3,1.8,0.4c0.5,0.1,1.1,0.2,1.8,0.3c0.7,0.1,1.4,0.1,2,0.1c1.2,0,1.8-0.4,1.8-1.2
					c0-0.3-0.2-0.6-0.6-0.9c-0.4-0.3-0.8-0.7-1.4-1.1c-0.6-0.4-1.2-0.8-1.8-1.3c-0.6-0.5-1.3-1-1.8-1.6c-0.6-0.6-1-1.3-1.4-2
					c-0.4-0.8-0.6-1.6-0.6-2.6c0-1.1,0.2-2,0.7-2.9c0.4-0.8,1.1-1.5,1.9-2.1c0.8-0.6,1.7-1,2.8-1.3c1.1-0.3,2.2-0.4,3.4-0.4
					c0.6,0,1.3,0,1.9,0.1c0.6,0.1,1.2,0.1,1.7,0.2c0.6,0.1,1.2,0.1,1.7,0.2c0,2.2,0,4.4,0,6.6c-0.2,0-0.5-0.1-0.7-0.1
					c-0.2,0-0.5-0.1-0.7-0.1c-0.3,0-0.5,0-0.8,0c-0.2,0-0.4,0-0.6,0c-0.2,0-0.5,0-0.7,0.1c-0.2,0-0.4,0.1-0.6,0.2
					c-0.2,0.1-0.2,0.3-0.2,0.5c0,0.2,0.2,0.4,0.5,0.7c0.4,0.3,0.8,0.6,1.3,1c0.5,0.4,1.1,0.8,1.7,1.3c0.6,0.5,1.2,1.1,1.7,1.7
					c0.5,0.6,1,1.4,1.3,2.2c0.4,0.8,0.5,1.7,0.5,2.7c0,1-0.2,2-0.6,2.9c-0.4,0.9-0.9,1.7-1.7,2.3c-0.8,0.6-1.8,1.1-3,1.5
					c-1.2,0.4-2.7,0.5-4.3,0.5c-1,0-1.9-0.1-2.8-0.2c-0.9-0.1-1.6-0.2-2.3-0.3c-0.8-0.1-1.5-0.3-2.1-0.5
					C153.8,76.4,153.8,74.1,153.8,71.8z"/>
				<path class="st4" d="M171.5,72.1c0.6,0.2,1.2,0.3,1.8,0.4c0.5,0.1,1.1,0.2,1.8,0.3c0.7,0.1,1.4,0.1,2,0.2c1.2,0,1.8-0.4,1.8-1.2
					c0-0.3-0.2-0.6-0.6-1c-0.4-0.3-0.8-0.7-1.4-1.1c-0.6-0.4-1.2-0.8-1.8-1.3c-0.6-0.5-1.3-1-1.8-1.7c-0.6-0.6-1-1.3-1.4-2.1
					c-0.4-0.8-0.6-1.6-0.6-2.6c0-1.1,0.2-2.1,0.7-2.9c0.4-0.8,1.1-1.5,1.9-2.1c0.8-0.6,1.7-1,2.8-1.3c1.1-0.3,2.2-0.4,3.4-0.4
					c0.6,0,1.3,0,1.9,0.1c0.6,0.1,1.2,0.1,1.7,0.2c0.6,0.1,1.2,0.1,1.7,0.2c0,2.2,0,4.5,0,6.7c-0.2,0-0.5-0.1-0.7-0.1
					c-0.2,0-0.5-0.1-0.7-0.1c-0.3,0-0.5,0-0.8,0c-0.2,0-0.4,0-0.6,0c-0.2,0-0.5,0-0.7,0.1c-0.2,0-0.4,0.1-0.6,0.2
					c-0.2,0.1-0.2,0.3-0.2,0.5c0,0.2,0.2,0.4,0.5,0.7c0.4,0.3,0.8,0.6,1.3,1c0.5,0.4,1.1,0.8,1.7,1.4c0.6,0.5,1.2,1.1,1.7,1.8
					c0.5,0.7,1,1.4,1.3,2.2c0.4,0.8,0.5,1.7,0.5,2.8c0,1.1-0.2,2-0.6,3c-0.4,0.9-0.9,1.7-1.7,2.4c-0.8,0.7-1.8,1.2-3,1.5
					c-1.2,0.3-2.7,0.5-4.3,0.4c-1,0-1.9-0.1-2.8-0.2c-0.9-0.1-1.6-0.2-2.3-0.4c-0.8-0.1-1.5-0.3-2.1-0.5
					C171.5,76.8,171.5,74.5,171.5,72.1z"/>
				<path class="st4" d="M190,55.9c5.2,0,10.4,0,15.6,0.1c0,2.2,0,4.4,0,6.5c-2.4,0-4.8-0.1-7.1-0.1c0,0.9,0,1.8,0,2.7
					c2.3,0,4.7,0.1,7,0.2c0,2.1,0,4.1,0,6.2c-2.3-0.1-4.7-0.2-7-0.2c0,0.9,0,1.9,0,2.8c2.5,0.1,5,0.2,7.4,0.3c0,2.2,0,4.4,0,6.5
					c-5.3-0.3-10.6-0.6-15.9-0.8C190.1,72.1,190.1,64,190,55.9z"/>
				<path class="st4" d="M208.3,56c2.3,0,4.6,0,7,0c2.4,3.3,4.9,6.6,7.3,10c0-3.3,0-6.6,0-10c2.8,0,5.5,0,8.3,0c0,8.8,0,17.6,0,26.4
					c-2.3-0.2-4.7-0.3-7-0.5c-2.4-3.5-4.8-6.9-7.3-10.3c0,3.3,0,6.5,0,9.8c-2.8-0.2-5.5-0.3-8.3-0.5C208.3,72.7,208.3,64.4,208.3,56
					z"/>
			</g>
		</g>
		<g>
			<path class="st5" d="M202.5,28.1c7.3-1.4,14.7-2.7,22-3.9c-0.3-1.9-0.8-3.7-1.6-5.5c-1.3-3.1-3.1-5.7-5.3-8
				c-2.3-2.3-4.9-4-7.9-5.3c-3-1.3-6.3-1.9-9.7-1.9c-3.4,0-6.6,0.6-9.7,1.9c-3,1.3-5.7,3-7.9,5.3c-2.3,2.3-4,4.9-5.3,8
				c-1.3,3.1-2,6.3-2,9.7c0,3.4,0.7,6.6,2,9.6c1.3,3,3.1,5.5,5.3,7.6c2.3,2.1,4.9,3.8,7.9,5c3,1.2,6.3,1.8,9.7,1.8
				c3.4,0,6.6-0.6,9.7-1.8c3-1.2,5.7-2.8,7.9-5c2.2-2,3.9-4.5,5.2-7.3C216.1,34.8,209.3,31.4,202.5,28.1z"/>
			<path class="st1" d="M202.5,28.1c7.3-1.4,14.7-2.7,22-3.9c-0.3-1.9-0.8-3.7-1.6-5.5c-1.3-3.1-3.1-5.7-5.3-8
				c-2.3-2.3-4.9-4-7.9-5.3c-3-1.3-6.3-1.9-9.7-1.9c-3.4,0-6.6,0.6-9.7,1.9c-3,1.3-5.7,3-7.9,5.3c-2.3,2.3-4,4.9-5.3,8
				c-1.3,3.1-2,6.3-2,9.7c0,3.4,0.7,6.6,2,9.6c1.3,3,3.1,5.5,5.3,7.6c2.3,2.1,4.9,3.8,7.9,5c3,1.2,6.3,1.8,9.7,1.8
				c3.4,0,6.6-0.6,9.7-1.8c3-1.2,5.7-2.8,7.9-5c2.2-2,3.9-4.5,5.2-7.3C216.1,34.8,209.3,31.4,202.5,28.1z"/>
		</g>
	</g>
</g>
<path class="st3" d="M173.2,101.3H73.9c-4.4,0-7.9-3.6-7.9-7.9v0c0-4.4,3.6-7.9,7.9-7.9h99.2c4.4,0,7.9,3.6,7.9,7.9v0
	C181.1,97.7,177.5,101.3,173.2,101.3z"/>
<text transform="matrix(1 0 0 1 74.9429 99.6091)" class="st6 st7 st8">comic con</text>
</svg>
