<?xml version="1.0" encoding="utf-8"?>
<!-- Generator: Adobe Illustrator 21.1.0, SVG Export Plug-In . SVG Version: 6.00 Build 0)  -->
<svg version="1.1" id="Layer_1" xmlns="http://www.w3.org/2000/svg" xmlns:xlink="http://www.w3.org/1999/xlink" x="0px" y="0px"
	 viewBox="0 0 253.9 106.9" style="enable-background:new 0 0 253.9 106.9;" xml:space="preserve">
<style type="text/css">
	.st0{enable-background:new    ;}
	.st1{clip-path:url(#SVGID_2_);enable-background:new    ;}
	.st2{fill:#858585;}
	.st3{clip-path:url(#SVGID_4_);enable-background:new    ;}
	.st4{clip-path:url(#SVGID_6_);enable-background:new    ;}
	.st5{fill:#949494;}
	.st6{fill:#8F8F8F;}
	.st7{fill:#8A8A8A;}
	.st8{clip-path:url(#SVGID_8_);enable-background:new    ;}
	.st9{clip-path:url(#SVGID_10_);enable-background:new    ;}
	.st10{clip-path:url(#SVGID_12_);enable-background:new    ;}
	.st11{fill:#E5E5E5;}
	.st12{clip-path:url(#SVGID_14_);enable-background:new    ;}
	.st13{clip-path:url(#SVGID_16_);enable-background:new    ;}
	.st14{clip-path:url(#SVGID_18_);enable-background:new    ;}
	.st15{clip-path:url(#SVGID_20_);enable-background:new    ;}
	.st16{clip-path:url(#SVGID_22_);enable-background:new    ;}
	.st17{clip-path:url(#SVGID_24_);enable-background:new    ;}
	.st18{clip-path:url(#SVGID_26_);enable-background:new    ;}
	.st19{clip-path:url(#SVGID_28_);enable-background:new    ;}
	.st20{clip-path:url(#SVGID_30_);enable-background:new    ;}
	.st21{clip-path:url(#SVGID_32_);enable-background:new    ;}
	.st22{clip-path:url(#SVGID_34_);enable-background:new    ;}
	.st23{clip-path:url(#SVGID_36_);enable-background:new    ;}
	.st24{clip-path:url(#SVGID_38_);enable-background:new    ;}
	.st25{clip-path:url(#SVGID_40_);enable-background:new    ;}
	.st26{clip-path:url(#SVGID_42_);enable-background:new    ;}
	.st27{clip-path:url(#SVGID_44_);enable-background:new    ;}
	.st28{clip-path:url(#SVGID_46_);enable-background:new    ;}
	.st29{clip-path:url(#SVGID_48_);enable-background:new    ;}
	.st30{clip-path:url(#SVGID_50_);enable-background:new    ;}
	.st31{clip-path:url(#SVGID_52_);enable-background:new    ;}
	.st32{clip-path:url(#SVGID_54_);enable-background:new    ;}
	.st33{clip-path:url(#SVGID_56_);enable-background:new    ;}
	.st34{clip-path:url(#SVGID_58_);enable-background:new    ;}
	.st35{clip-path:url(#SVGID_60_);enable-background:new    ;}
	.st36{clip-path:url(#SVGID_62_);enable-background:new    ;}
	.st37{clip-path:url(#SVGID_64_);enable-background:new    ;}
	.st38{clip-path:url(#SVGID_66_);enable-background:new    ;}
	.st39{clip-path:url(#SVGID_68_);enable-background:new    ;}
	.st40{clip-path:url(#SVGID_70_);enable-background:new    ;}
	.st41{clip-path:url(#SVGID_72_);enable-background:new    ;}
	.st42{clip-path:url(#SVGID_74_);enable-background:new    ;}
	.st43{clip-path:url(#SVGID_76_);enable-background:new    ;}
	.st44{clip-path:url(#SVGID_78_);enable-background:new    ;}
	.st45{clip-path:url(#SVGID_80_);enable-background:new    ;}
	.st46{clip-path:url(#SVGID_82_);enable-background:new    ;}
	.st47{clip-path:url(#SVGID_84_);enable-background:new    ;}
	.st48{clip-path:url(#SVGID_86_);enable-background:new    ;}
	.st49{clip-path:url(#SVGID_88_);enable-background:new    ;}
	.st50{clip-path:url(#SVGID_90_);enable-background:new    ;}
	.st51{clip-path:url(#SVGID_92_);enable-background:new    ;}
	.st52{clip-path:url(#SVGID_94_);enable-background:new    ;}
	.st53{clip-path:url(#SVGID_96_);enable-background:new    ;}
	.st54{clip-path:url(#SVGID_98_);enable-background:new    ;}
	.st55{clip-path:url(#SVGID_100_);enable-background:new    ;}
	.st56{clip-path:url(#SVGID_102_);enable-background:new    ;}
	.st57{clip-path:url(#SVGID_104_);enable-background:new    ;}
	.st58{clip-path:url(#SVGID_106_);enable-background:new    ;}
	.st59{clip-path:url(#SVGID_108_);enable-background:new    ;}
	.st60{clip-path:url(#SVGID_110_);enable-background:new    ;}
	.st61{clip-path:url(#SVGID_112_);enable-background:new    ;}
	.st62{clip-path:url(#SVGID_114_);enable-background:new    ;}
	.st63{clip-path:url(#SVGID_116_);enable-background:new    ;}
	.st64{clip-path:url(#SVGID_118_);enable-background:new    ;}
	.st65{clip-path:url(#SVGID_120_);enable-background:new    ;}
	.st66{clip-path:url(#SVGID_122_);enable-background:new    ;}
	.st67{clip-path:url(#SVGID_124_);enable-background:new    ;}
	.st68{clip-path:url(#SVGID_126_);enable-background:new    ;}
	.st69{clip-path:url(#SVGID_128_);enable-background:new    ;}
	.st70{clip-path:url(#SVGID_130_);enable-background:new    ;}
	.st71{clip-path:url(#SVGID_132_);enable-background:new    ;}
	.st72{clip-path:url(#SVGID_134_);enable-background:new    ;}
	.st73{clip-path:url(#SVGID_136_);enable-background:new    ;}
	.st74{clip-path:url(#SVGID_138_);enable-background:new    ;}
	.st75{clip-path:url(#SVGID_140_);enable-background:new    ;}
	.st76{clip-path:url(#SVGID_142_);enable-background:new    ;}
	.st77{clip-path:url(#SVGID_144_);enable-background:new    ;}
	.st78{clip-path:url(#SVGID_146_);enable-background:new    ;}
</style>
<g>
	<g>
		<g class="st0">
			<g class="st0">
				<defs>
					<path id="SVGID_1_" class="st0" d="M37.7,22.2v4.2c-0.3,0-0.6,0-0.9,0l0-4.2C37.1,22.2,37.4,22.2,37.7,22.2z"/>
				</defs>
				<clipPath id="SVGID_2_">
					<use xlink:href="#SVGID_1_"  style="overflow:visible;"/>
				</clipPath>
				<g class="st1">
					<path class="st2" d="M37.7,22.2v4.2c-0.3,0-0.6,0-0.9,0v-4.2C37.1,22.2,37.4,22.2,37.7,22.2"/>
				</g>
			</g>
			<g class="st0">
				<defs>
					<path id="SVGID_3_" class="st0" d="M44.8,27.9l0,4.2c0-2-0.7-3.5-2.1-4.4c-1.4-0.9-3.1-1.3-5.1-1.3v-4.2c2,0,3.7,0.4,5.1,1.3
						C44.1,24.4,44.8,25.8,44.8,27.9z"/>
				</defs>
				<clipPath id="SVGID_4_">
					<use xlink:href="#SVGID_3_"  style="overflow:visible;"/>
				</clipPath>
				<g class="st3">
					<path class="st2" d="M44.8,27.9v4.2c0-2-0.7-3.5-2.1-4.4c-1.4-0.9-3.1-1.3-5.1-1.3v-4.2c2,0,3.7,0.4,5.1,1.3
						C44.1,24.4,44.8,25.8,44.8,27.9"/>
				</g>
			</g>
			<g class="st0">
				<defs>
					<path id="SVGID_5_" class="st0" d="M61.6,28.6l0,4.2c0,2.6-0.4,4.8-1.1,6.5c-0.7,1.8-1.5,3.2-2.4,4.4v-4.2
						c0.9-1.2,1.7-2.6,2.4-4.4C61.3,33.4,61.6,31.2,61.6,28.6z"/>
				</defs>
				<clipPath id="SVGID_6_">
					<use xlink:href="#SVGID_5_"  style="overflow:visible;"/>
				</clipPath>
				<g class="st4">
					<path class="st5" d="M61.6,28.6v4.2c0,1.6-0.1,3-0.4,4.3v-4.2C61.5,31.6,61.6,30.2,61.6,28.6"/>
					<path class="st6" d="M61.2,32.9v4.2c-0.2,0.8-0.4,1.5-0.7,2.2c-0.2,0.4-0.3,0.7-0.5,1.1v-4.2c0.2-0.3,0.3-0.7,0.5-1.1
						C60.8,34.5,61,33.7,61.2,32.9"/>
					<path class="st7" d="M60.1,36.2v4.2c-0.6,1.3-1.3,2.4-2,3.3v-4.2C58.8,38.6,59.5,37.5,60.1,36.2"/>
				</g>
			</g>
			<g class="st0">
				<defs>
					<path id="SVGID_7_" class="st0" d="M58.1,39.5v4.2C57,45,55.9,46.1,54.5,47l0-4.2C55.9,41.9,57,40.8,58.1,39.5z"/>
				</defs>
				<clipPath id="SVGID_8_">
					<use xlink:href="#SVGID_7_"  style="overflow:visible;"/>
				</clipPath>
				<g class="st8">
					<path class="st2" d="M58.1,39.5v4.2C57,45,55.9,46.1,54.5,47v-4.2C55.9,41.9,57,40.8,58.1,39.5"/>
				</g>
			</g>
			<g class="st0">
				<defs>
					<path id="SVGID_9_" class="st0" d="M44.7,59.4l0,4.2c-2.6-4.3-5.3-8.6-7.9-12.9l0-4.2C39.4,50.8,42.1,55.1,44.7,59.4z"/>
				</defs>
				<clipPath id="SVGID_10_">
					<use xlink:href="#SVGID_9_"  style="overflow:visible;"/>
				</clipPath>
				<g class="st9">
					<path class="st2" d="M44.7,59.4v4.2c-2.6-4.3-5.3-8.6-7.9-12.9v-4.2C39.4,50.8,42.1,55.1,44.7,59.4"/>
				</g>
			</g>
			<g class="st0">
				<defs>
					<path id="SVGID_11_" class="st0" d="M36.8,59.5l0,4.2C31.2,63.7,25.6,64,20,64.5l0-4.2C25.6,59.8,31.2,59.6,36.8,59.5z"/>
				</defs>
				<clipPath id="SVGID_12_">
					<use xlink:href="#SVGID_11_"  style="overflow:visible;"/>
				</clipPath>
				<g class="st10">
					<path class="st2" d="M36.8,59.5v4.2C31.2,63.7,25.6,64,20,64.5v-4.2C25.6,59.8,31.2,59.6,36.8,59.5"/>
				</g>
			</g>
			<g>
				<path class="st11" d="M54.5,42.8c3.3,5.7,6.6,11.5,9.8,17.5c-6.6-0.5-13.1-0.8-19.7-0.9c-2.6-4.3-5.3-8.6-7.9-12.9
					c0,4.3,0,8.6,0,12.9c-5.6,0.1-11.2,0.4-16.8,0.8c0-17.3,0-34.5,0-51.8c6,0,12.1,0,18.1,0c3.4,0,6.5,0.4,9.3,1.3
					c2.9,0.9,5.3,2.1,7.5,3.8c2.1,1.7,3.7,3.8,4.9,6.3c1.2,2.5,1.8,5.4,1.8,8.7c0,2.6-0.4,4.8-1.1,6.5c-0.7,1.8-1.5,3.2-2.4,4.4
					C57,40.8,55.9,41.9,54.5,42.8z M42.7,32.2c1.4-0.9,2.1-2.3,2.1-4.3s-0.7-3.5-2.1-4.4c-1.4-0.9-3.1-1.3-5.1-1.3
					c-0.3,0-0.6,0-0.9,0c0,3.8,0,7.5,0,11.3c0.3,0,0.6,0,0.9,0C39.7,33.5,41.4,33.1,42.7,32.2"/>
			</g>
			<g class="st0">
				<defs>
					<path id="SVGID_13_" class="st0" d="M64.4,60.3l0,4.2c-6.6-0.5-13.1-0.8-19.7-0.9l0-4.2C51.3,59.5,57.8,59.8,64.4,60.3z"/>
				</defs>
				<clipPath id="SVGID_14_">
					<use xlink:href="#SVGID_13_"  style="overflow:visible;"/>
				</clipPath>
				<g class="st12">
					<path class="st2" d="M64.4,60.3v4.2c-6.6-0.5-13.1-0.8-19.7-0.9v-4.2C51.3,59.5,57.8,59.8,64.4,60.3"/>
				</g>
			</g>
		</g>
	</g>
</g>
<g>
	<g>
		<g class="st0">
			<g class="st0">
				<defs>
					<path id="SVGID_15_" class="st0" d="M97,22.1v4.2c-4.7-0.1-9.5-0.1-14.2-0.1l0-4.2C87.5,21.9,92.2,22,97,22.1z"/>
				</defs>
				<clipPath id="SVGID_16_">
					<use xlink:href="#SVGID_15_"  style="overflow:visible;"/>
				</clipPath>
				<g class="st13">
					<path class="st2" d="M97,22.1v4.2c-4.7-0.1-9.5-0.1-14.2-0.1v-4.2C87.5,21.9,92.2,22,97,22.1"/>
				</g>
			</g>
			<g class="st0">
				<defs>
					<path id="SVGID_17_" class="st0" d="M96.7,40.7l0,4.2c-4.7-0.2-9.3-0.3-14-0.3l0-4.2C87.4,40.3,92.1,40.5,96.7,40.7z"/>
				</defs>
				<clipPath id="SVGID_18_">
					<use xlink:href="#SVGID_17_"  style="overflow:visible;"/>
				</clipPath>
				<g class="st14">
					<path class="st2" d="M96.7,40.7v4.2c-4.7-0.2-9.3-0.3-14-0.3v-4.2C87.4,40.3,92.1,40.5,96.7,40.7"/>
				</g>
			</g>
			<g>
				<path class="st11" d="M97,8.5c0,4.5,0,9.1,0,13.6c-4.7-0.1-9.5-0.1-14.2-0.1c0,1.9,0,3.8,0,5.7c4.7,0,9.3,0.1,14,0.2
					c0,4.3,0,8.6,0,12.9c-4.7-0.2-9.3-0.3-14-0.3c0,2,0,3.9,0,5.9c4.9,0,9.8,0.2,14.7,0.4c0,4.5,0,9.1,0,13.6
					c-5.2-0.4-10.5-0.6-15.8-0.6c-5.3,0-10.5,0.2-15.8,0.6c0-17.3,0-34.5,0-51.8C76.3,8.5,86.6,8.5,97,8.5z"/>
			</g>
			<g class="st0">
				<defs>
					<path id="SVGID_19_" class="st0" d="M97.5,60.3v4.2C92.3,64,87,63.8,81.7,63.8c-5.3,0-10.5,0.2-15.8,0.6v-4.2
						c5.3-0.4,10.5-0.6,15.8-0.6C87,59.7,92.3,59.9,97.5,60.3z"/>
				</defs>
				<clipPath id="SVGID_20_">
					<use xlink:href="#SVGID_19_"  style="overflow:visible;"/>
				</clipPath>
				<g class="st15">
					<path class="st2" d="M97.5,60.3v4.2C92.3,64,87,63.8,81.7,63.8c-5.3,0-10.5,0.2-15.8,0.6v-4.2c5.3-0.4,10.5-0.6,15.8-0.6
						C87,59.7,92.3,59.9,97.5,60.3"/>
				</g>
			</g>
		</g>
	</g>
</g>
<g>
	<g>
		<g class="st0">
			<g class="st0">
				<defs>
					<path id="SVGID_21_" class="st0" d="M136.2,22.1l0,4.2c-3.2-0.1-6.5-0.1-9.7-0.2l0-4.2C129.8,22,133,22,136.2,22.1z"/>
				</defs>
				<clipPath id="SVGID_22_">
					<use xlink:href="#SVGID_21_"  style="overflow:visible;"/>
				</clipPath>
				<g class="st16">
					<path class="st2" d="M136.2,22.1v4.2c-3.2-0.1-6.5-0.1-9.7-0.2v-4.2C129.8,22,133,22,136.2,22.1"/>
				</g>
			</g>
			<g class="st0">
				<defs>
					<path id="SVGID_23_" class="st0" d="M109.2,21.9l0,4.2c-3.2,0-6.5,0.1-9.7,0.2l0-4.2C102.7,22,106,22,109.2,21.9z"/>
				</defs>
				<clipPath id="SVGID_24_">
					<use xlink:href="#SVGID_23_"  style="overflow:visible;"/>
				</clipPath>
				<g class="st17">
					<path class="st2" d="M109.2,21.9v4.2c-3.2,0-6.5,0.1-9.7,0.2v-4.2C102.7,22,106,22,109.2,21.9"/>
				</g>
			</g>
			<g>
				<path class="st11" d="M136.2,8.5c0,4.5,0,9.1,0,13.6c-3.2-0.1-6.5-0.1-9.7-0.2c0,12.6,0,25.2,0,37.8c-2.9-0.1-5.8-0.2-8.7-0.2
					s-5.8,0.1-8.7,0.2c0-12.6,0-25.2,0-37.8c-3.2,0-6.5,0.1-9.7,0.2c0-4.5,0-9.1,0-13.6C111.7,8.5,124,8.5,136.2,8.5z"/>
			</g>
			<g class="st0">
				<defs>
					<path id="SVGID_25_" class="st0" d="M126.5,59.7l0,4.2c-2.9-0.1-5.8-0.2-8.7-0.2s-5.8,0.1-8.7,0.2l0-4.2
						c2.9-0.1,5.8-0.2,8.7-0.2S123.7,59.6,126.5,59.7z"/>
				</defs>
				<clipPath id="SVGID_26_">
					<use xlink:href="#SVGID_25_"  style="overflow:visible;"/>
				</clipPath>
				<g class="st18">
					<path class="st2" d="M126.5,59.7v4.2c-2.9-0.1-5.8-0.2-8.7-0.2s-5.8,0.1-8.7,0.2v-4.2c2.9-0.1,5.8-0.2,8.7-0.2
						S123.7,59.6,126.5,59.7"/>
				</g>
			</g>
		</g>
	</g>
</g>
<g>
	<g>
		<g class="st0">
			<g class="st0">
				<defs>
					<path id="SVGID_27_" class="st0" d="M156.7,22.2v4.2c-0.3,0-0.6,0-0.9,0v-4.2C156.1,22.2,156.4,22.2,156.7,22.2z"/>
				</defs>
				<clipPath id="SVGID_28_">
					<use xlink:href="#SVGID_27_"  style="overflow:visible;"/>
				</clipPath>
				<g class="st19">
					<path class="st2" d="M156.7,22.2v4.2c-0.3,0-0.6,0-0.9,0v-4.2C156.1,22.2,156.4,22.2,156.7,22.2"/>
				</g>
			</g>
			<g class="st0">
				<defs>
					<path id="SVGID_29_" class="st0" d="M163.8,27.9l0,4.2c0-2-0.7-3.5-2.1-4.4s-3.1-1.3-5.1-1.3v-4.2c2,0,3.7,0.4,5.1,1.3
						C163.1,24.4,163.8,25.8,163.8,27.9z"/>
				</defs>
				<clipPath id="SVGID_30_">
					<use xlink:href="#SVGID_29_"  style="overflow:visible;"/>
				</clipPath>
				<g class="st20">
					<path class="st2" d="M163.8,27.9v4.2c0-2-0.7-3.5-2.1-4.4s-3.1-1.3-5.1-1.3v-4.2c2,0,3.7,0.4,5.1,1.3
						C163.1,24.4,163.8,25.8,163.8,27.9"/>
				</g>
			</g>
			<g class="st0">
				<defs>
					<path id="SVGID_31_" class="st0" d="M180.6,28.6v4.2c0,2.6-0.4,4.8-1.1,6.5c-0.7,1.8-1.5,3.2-2.4,4.4c-1,1.3-2.2,2.4-3.5,3.3
						v-4.2c1.3-0.9,2.5-2,3.5-3.3c0.9-1.2,1.7-2.6,2.4-4.4C180.3,33.4,180.6,31.2,180.6,28.6z"/>
				</defs>
				<clipPath id="SVGID_32_">
					<use xlink:href="#SVGID_31_"  style="overflow:visible;"/>
				</clipPath>
				<g class="st21">
					<path class="st5" d="M180.6,28.6v4.2c0,1.6-0.1,3-0.4,4.3v-4.2C180.5,31.6,180.6,30.2,180.6,28.6"/>
					<path class="st6" d="M180.2,32.9v4.2c-0.2,0.8-0.4,1.5-0.7,2.2c-0.2,0.4-0.3,0.7-0.5,1.1v-4.2c0.2-0.3,0.3-0.7,0.5-1.1
						C179.8,34.5,180,33.7,180.2,32.9"/>
					<path class="st7" d="M179.1,36.2v4.2c-0.6,1.3-1.3,2.4-2,3.3c0,0,0,0,0,0.1v-4.2c0,0,0,0,0-0.1
						C177.8,38.6,178.5,37.5,179.1,36.2"/>
					<path class="st2" d="M177,39.6v4.2c-1,1.3-2.2,2.3-3.5,3.2v-4.2C174.8,41.9,176,40.9,177,39.6"/>
				</g>
			</g>
			<g class="st0">
				<defs>
					<path id="SVGID_33_" class="st0" d="M163.7,59.4l0,4.2c-2.6-4.3-5.3-8.6-7.9-12.9v-4.2C158.4,50.8,161,55.1,163.7,59.4z"/>
				</defs>
				<clipPath id="SVGID_34_">
					<use xlink:href="#SVGID_33_"  style="overflow:visible;"/>
				</clipPath>
				<g class="st22">
					<path class="st2" d="M163.7,59.4v4.2c-2.6-4.3-5.3-8.6-7.9-12.9v-4.2C158.4,50.8,161,55.1,163.7,59.4"/>
				</g>
			</g>
			<g>
				<path class="st11" d="M173.5,42.8c3.3,5.7,6.6,11.5,9.9,17.5c-6.6-0.5-13.1-0.8-19.7-0.9c-2.6-4.3-5.3-8.6-7.9-12.9
					c0,4.3,0,8.6,0,12.9c-5.6,0.1-11.2,0.4-16.8,0.8c0-17.3,0-34.5,0-51.8c6,0,12.1,0,18.1,0c3.4,0,6.5,0.4,9.4,1.3
					c2.9,0.9,5.3,2.1,7.5,3.8c2.1,1.7,3.7,3.8,4.9,6.3c1.2,2.5,1.8,5.4,1.8,8.7c0,2.6-0.4,4.8-1.1,6.5c-0.7,1.8-1.5,3.2-2.4,4.4
					C176,40.8,174.9,41.9,173.5,42.8z M161.7,32.2c1.4-0.9,2.1-2.3,2.1-4.3s-0.7-3.5-2.1-4.4c-1.4-0.9-3.1-1.3-5.1-1.3
					c-0.3,0-0.6,0-0.9,0c0,3.8,0,7.5,0,11.3c0.3,0,0.6,0,0.9,0C158.7,33.5,160.4,33.1,161.7,32.2"/>
			</g>
			<g class="st0">
				<defs>
					<path id="SVGID_35_" class="st0" d="M183.4,60.3l0,4.2c-6.6-0.5-13.1-0.8-19.7-0.9l0-4.2C170.3,59.5,176.8,59.8,183.4,60.3z"/>
				</defs>
				<clipPath id="SVGID_36_">
					<use xlink:href="#SVGID_35_"  style="overflow:visible;"/>
				</clipPath>
				<g class="st23">
					<path class="st2" d="M183.4,60.3v4.2c-6.6-0.5-13.1-0.8-19.7-0.9v-4.2C170.3,59.5,176.8,59.8,183.4,60.3"/>
				</g>
			</g>
			<g class="st0">
				<defs>
					<path id="SVGID_37_" class="st0" d="M155.8,59.5v4.2c-5.6,0.1-11.2,0.4-16.8,0.8v-4.2C144.6,59.8,150.2,59.6,155.8,59.5z"/>
				</defs>
				<clipPath id="SVGID_38_">
					<use xlink:href="#SVGID_37_"  style="overflow:visible;"/>
				</clipPath>
				<g class="st24">
					<path class="st2" d="M155.8,59.5v4.2c-5.6,0.1-11.2,0.4-16.8,0.8v-4.2C144.6,59.8,150.2,59.6,155.8,59.5"/>
				</g>
			</g>
		</g>
	</g>
</g>
<g>
	<g>
		<g class="st0">
			<g class="st0">
				<defs>
					<path id="SVGID_39_" class="st0" d="M23.4,72.8V77c-0.3,0-0.6,0-0.9,0v-4.2C22.8,72.8,23.1,72.8,23.4,72.8z"/>
				</defs>
				<clipPath id="SVGID_40_">
					<use xlink:href="#SVGID_39_"  style="overflow:visible;"/>
				</clipPath>
				<g class="st25">
					<path class="st2" d="M23.4,72.8V77c-0.3,0-0.6,0-0.9,0v-4.2C22.8,72.8,23.1,72.8,23.4,72.8"/>
				</g>
			</g>
			<g class="st0">
				<defs>
					<path id="SVGID_41_" class="st0" d="M24.2,72.9v4.2c-0.2,0-0.5,0-0.8-0.1v-4.2C23.7,72.8,24,72.9,24.2,72.9z"/>
				</defs>
				<clipPath id="SVGID_42_">
					<use xlink:href="#SVGID_41_"  style="overflow:visible;"/>
				</clipPath>
				<g class="st26">
					<path class="st2" d="M24.2,72.9v4.2c-0.2,0-0.5,0-0.8-0.1v-4.2C23.7,72.8,24,72.9,24.2,72.9"/>
				</g>
			</g>
			<g class="st0">
				<defs>
					<path id="SVGID_43_" class="st0" d="M25,73l0,4.2c-0.2,0-0.5-0.1-0.8-0.1v-4.2C24.5,72.9,24.7,72.9,25,73z"/>
				</defs>
				<clipPath id="SVGID_44_">
					<use xlink:href="#SVGID_43_"  style="overflow:visible;"/>
				</clipPath>
				<g class="st27">
					<path class="st2" d="M25,73v4.2c-0.2,0-0.5-0.1-0.8-0.1v-4.2C24.5,72.9,24.7,72.9,25,73"/>
				</g>
			</g>
			<g class="st0">
				<defs>
					<path id="SVGID_45_" class="st0" d="M22.5,72.8V77c-0.2,0-0.4,0-0.7,0c-0.3,0-0.5,0.1-0.7,0.1c-0.2,0.1-0.4,0.2-0.6,0.3v-4.2
						c0.2-0.1,0.4-0.2,0.6-0.3c0.2-0.1,0.5-0.1,0.7-0.1C22.1,72.8,22.3,72.8,22.5,72.8z"/>
				</defs>
				<clipPath id="SVGID_46_">
					<use xlink:href="#SVGID_45_"  style="overflow:visible;"/>
				</clipPath>
				<g class="st28">
					<path class="st2" d="M22.5,72.8V77c-0.2,0-0.4,0-0.7,0c-0.3,0-0.5,0.1-0.7,0.1c-0.2,0.1-0.4,0.2-0.6,0.3v-4.2
						c0.2-0.1,0.4-0.2,0.6-0.3c0.2-0.1,0.5-0.1,0.7-0.1C22.1,72.8,22.3,72.8,22.5,72.8"/>
				</g>
			</g>
			<g class="st0">
				<defs>
					<path id="SVGID_47_" class="st0" d="M20.4,73.3v4.2c-0.2,0.2-0.3,0.3-0.3,0.6v-4.2C20.2,73.6,20.3,73.4,20.4,73.3z"/>
				</defs>
				<clipPath id="SVGID_48_">
					<use xlink:href="#SVGID_47_"  style="overflow:visible;"/>
				</clipPath>
				<g class="st29">
					<path class="st2" d="M20.4,73.3v4.2c0,0-0.1,0.1-0.1,0.1v-4.2C20.4,73.3,20.4,73.3,20.4,73.3"/>
					<path class="st7" d="M20.3,73.4v4.2c0,0-0.1,0.1-0.1,0.1v-4.2C20.3,73.4,20.3,73.4,20.3,73.4"/>
					<path class="st6" d="M20.3,73.5v4.2c0,0,0,0.1-0.1,0.2v-4.2C20.2,73.6,20.2,73.5,20.3,73.5"/>
					<path class="st5" d="M20.2,73.7v4.2c0,0.1,0,0.1,0,0.2v-4.2C20.2,73.8,20.2,73.7,20.2,73.7"/>
				</g>
			</g>
			<g class="st0">
				<defs>
					<path id="SVGID_49_" class="st0" d="M17.8,84.3l0,4.2c0-0.4-0.2-0.7-0.6-1.1c-0.4-0.4-0.9-0.8-1.6-1.2c-0.6-0.4-1.3-0.9-2-1.5
						c-0.7-0.5-1.4-1.2-2-1.9c-0.6-0.7-1.1-1.6-1.6-2.5c-0.4-0.9-0.6-2-0.6-3.2l0-4.2c0,1.2,0.2,2.3,0.6,3.2
						c0.4,0.9,0.9,1.8,1.6,2.5c0.6,0.7,1.3,1.4,2,1.9c0.7,0.5,1.4,1,2,1.5c0.6,0.4,1.2,0.8,1.6,1.2C17.6,83.6,17.8,83.9,17.8,84.3z"
						/>
				</defs>
				<clipPath id="SVGID_50_">
					<use xlink:href="#SVGID_49_"  style="overflow:visible;"/>
				</clipPath>
				<g class="st30">
					<path class="st2" d="M17.8,84.3v4.2c0-0.4-0.2-0.7-0.6-1.1c-0.4-0.4-0.9-0.8-1.6-1.2c-0.6-0.4-1.3-0.9-2-1.5
						c-0.7-0.5-1.4-1.2-2-1.9c-0.6-0.7-1.1-1.6-1.6-2.5c-0.4-0.9-0.6-2-0.6-3.2v-4.2c0,1.2,0.2,2.3,0.6,3.2c0.4,0.9,0.9,1.8,1.6,2.5
						c0.6,0.7,1.3,1.4,2,1.9c0.7,0.5,1.4,1,2,1.5c0.6,0.4,1.2,0.8,1.6,1.2C17.6,83.6,17.8,83.9,17.8,84.3"/>
				</g>
			</g>
			<g class="st0">
				<defs>
					<path id="SVGID_51_" class="st0" d="M11.8,94.2v4.2c-0.8-0.1-1.6-0.2-2.3-0.3v-4.2C10.2,94,10.9,94.2,11.8,94.2z"/>
				</defs>
				<clipPath id="SVGID_52_">
					<use xlink:href="#SVGID_51_"  style="overflow:visible;"/>
				</clipPath>
				<g class="st31">
					<path class="st2" d="M11.8,94.2v4.2c-0.8-0.1-1.6-0.2-2.3-0.3v-4.2C10.2,94,10.9,94.2,11.8,94.2"/>
				</g>
			</g>
			<g class="st0">
				<defs>
					<path id="SVGID_53_" class="st0" d="M28.1,84.9l0,4.2c0,1.2-0.2,2.4-0.6,3.4c-0.4,1.1-1.1,2.1-1.9,2.9c-0.9,0.8-2,1.5-3.3,2.1
						c-1.3,0.6-2.9,0.9-4.8,1c-0.8,0.1-1.5,0.1-2.2,0.1c-0.3,0-0.6,0-0.9,0c-1,0-1.8-0.1-2.5-0.2v-4.2c0.7,0.1,1.6,0.2,2.5,0.2
						c0.3,0,0.6,0,0.9,0c0.7,0,1.5,0,2.2-0.1c1.8-0.1,3.4-0.5,4.8-1c1.3-0.5,2.5-1.2,3.3-2.1c0.9-0.8,1.5-1.8,1.9-2.9
						C27.8,87.2,28.1,86.1,28.1,84.9z"/>
				</defs>
				<clipPath id="SVGID_54_">
					<use xlink:href="#SVGID_53_"  style="overflow:visible;"/>
				</clipPath>
				<g class="st32">
					<path class="st5" d="M28.1,84.9V89c0,0.7-0.1,1.4-0.2,2.1V87C28,86.3,28.1,85.6,28.1,84.9"/>
					<path class="st6" d="M27.8,87v4.2c-0.1,0.4-0.2,0.9-0.4,1.3c-0.1,0.2-0.1,0.4-0.2,0.5v-4.2c0.1-0.2,0.2-0.4,0.2-0.5
						C27.6,87.9,27.7,87.5,27.8,87"/>
					<path class="st7" d="M27.2,88.9V93c-0.3,0.6-0.6,1.1-1,1.6v-4.2C26.6,89.9,26.9,89.4,27.2,88.9"/>
					<path class="st2" d="M26.2,90.4v4.2c-0.2,0.3-0.5,0.5-0.7,0.8c-0.9,0.8-2,1.5-3.3,2.1c-1.3,0.6-2.9,0.9-4.8,1
						c-0.8,0.1-1.5,0.1-2.2,0.1c-0.3,0-0.6,0-0.9,0c-1,0-1.8-0.1-2.5-0.2v-4.2c0.7,0.1,1.6,0.2,2.5,0.2c0.3,0,0.6,0,0.9,0
						c0.7,0,1.5,0,2.2-0.1c1.8-0.1,3.4-0.5,4.8-1c1.3-0.5,2.5-1.2,3.3-2.1C25.8,91,26,90.7,26.2,90.4"/>
				</g>
			</g>
			<g>
				<path class="st11" d="M19.1,64.6c0.7,0,1.4,0,2.1,0.1c0.7,0.1,1.3,0.1,1.9,0.2c0.6,0.1,1.3,0.2,1.9,0.2c0,2.6,0,5.2,0,7.8
					c-0.2,0-0.5-0.1-0.8-0.1c-0.2,0-0.5,0-0.8-0.1c-0.3,0-0.6,0-0.9,0c-0.2,0-0.4,0-0.7,0c-0.3,0-0.5,0.1-0.7,0.1
					c-0.2,0.1-0.4,0.2-0.6,0.3c-0.2,0.2-0.3,0.3-0.3,0.6c0,0.2,0.2,0.5,0.6,0.8c0.4,0.3,0.9,0.7,1.4,1.1c0.6,0.4,1.2,0.9,1.9,1.5
					c0.7,0.6,1.3,1.2,1.9,1.9c0.6,0.7,1.1,1.6,1.4,2.5c0.4,0.9,0.6,2,0.6,3.1c0,1.2-0.2,2.4-0.6,3.4c-0.4,1.1-1.1,2.1-1.9,2.9
					c-0.9,0.8-2,1.5-3.3,2.1c-1.3,0.6-2.9,0.9-4.8,1c-0.8,0.1-1.5,0.1-2.2,0.1c-0.3,0-0.6,0-0.9,0c-1,0-1.8-0.1-2.5-0.2
					c-0.8-0.1-1.6-0.2-2.3-0.3c0-2.9,0-5.8,0-8.7c0.6,0.2,1.3,0.3,2,0.4c0.6,0.1,1.3,0.2,2,0.2c0.4,0,0.8,0,1.2,0c0.4,0,0.7,0,1.1,0
					c1.3-0.1,2-0.6,2-1.5c0-0.4-0.2-0.7-0.6-1.1c-0.4-0.4-0.9-0.8-1.6-1.2c-0.6-0.4-1.3-0.9-2-1.5c-0.7-0.5-1.4-1.2-2-1.9
					c-0.6-0.7-1.1-1.6-1.6-2.5c-0.4-0.9-0.6-2-0.6-3.2c0-1.4,0.2-2.6,0.7-3.6c0.5-1,1.2-1.9,2.1-2.6c0.9-0.7,1.9-1.2,3.1-1.6
					C16.5,64.8,17.7,64.6,19.1,64.6z"/>
			</g>
		</g>
		<g class="st0">
			<g class="st0">
				<defs>
					<path id="SVGID_55_" class="st0" d="M39.8,72.5v4.2c-0.1,0-0.3,0-0.4,0l0-4.2C39.5,72.5,39.7,72.5,39.8,72.5z"/>
				</defs>
				<clipPath id="SVGID_56_">
					<use xlink:href="#SVGID_55_"  style="overflow:visible;"/>
				</clipPath>
				<g class="st33">
					<path class="st2" d="M39.8,72.5v4.2c-0.1,0-0.3,0-0.4,0v-4.2C39.5,72.5,39.7,72.5,39.8,72.5"/>
				</g>
			</g>
			<g class="st0">
				<defs>
					<path id="SVGID_57_" class="st0" d="M43.3,75.4l0,4.2c0-0.9-0.3-1.7-0.8-2.2c-0.5-0.5-1.3-0.7-2.5-0.7c-0.1,0-0.1,0-0.2,0v-4.2
						c0.1,0,0.1,0,0.2,0c1.1,0,2,0.2,2.5,0.7C43,73.8,43.3,74.5,43.3,75.4z"/>
				</defs>
				<clipPath id="SVGID_58_">
					<use xlink:href="#SVGID_57_"  style="overflow:visible;"/>
				</clipPath>
				<g class="st34">
					<path class="st2" d="M43.3,75.4v4.2c0-0.9-0.3-1.7-0.8-2.2c-0.5-0.5-1.3-0.7-2.5-0.7c-0.1,0-0.1,0-0.2,0v-4.2
						c0.1,0,0.1,0,0.2,0c1.1,0,2,0.2,2.5,0.7C43,73.8,43.3,74.5,43.3,75.4"/>
				</g>
			</g>
			<g class="st0">
				<defs>
					<path id="SVGID_59_" class="st0" d="M39.4,72.5l0,4.2c0,2,0,4,0,6l0-4.2C39.4,76.5,39.4,74.5,39.4,72.5z"/>
				</defs>
				<clipPath id="SVGID_60_">
					<use xlink:href="#SVGID_59_"  style="overflow:visible;"/>
				</clipPath>
				<g class="st35">
					<path class="st5" d="M39.4,72.5v4.2c0,2,0,4,0,6v-4.2C39.4,76.5,39.4,74.5,39.4,72.5"/>
				</g>
			</g>
			<g class="st0">
				<defs>
					<path id="SVGID_61_" class="st0" d="M52.9,75.3l0,4.2c0,1.8-0.4,3.4-1.1,4.7c-0.7,1.3-1.7,2.4-2.9,3.2s-2.6,1.5-4.3,1.9
						c-1.6,0.4-3.4,0.7-5.3,0.8l0-4.2c1.9-0.1,3.6-0.3,5.3-0.8c1.6-0.4,3.1-1.1,4.3-1.9s2.2-1.9,2.9-3.2
						C52.5,78.6,52.9,77.1,52.9,75.3z"/>
				</defs>
				<clipPath id="SVGID_62_">
					<use xlink:href="#SVGID_61_"  style="overflow:visible;"/>
				</clipPath>
				<g class="st36">
					<path class="st5" d="M52.9,75.3v4.2c0,0.9-0.1,1.7-0.3,2.5v-4.2C52.8,77,52.9,76.1,52.9,75.3"/>
					<path class="st6" d="M52.6,77.7v4.2c-0.1,0.6-0.3,1.2-0.6,1.8v-4.2C52.3,78.9,52.5,78.3,52.6,77.7"/>
					<path class="st7" d="M52,79.5v4.2c-0.1,0.1-0.1,0.3-0.2,0.4c-0.3,0.5-0.6,0.9-0.9,1.3v-4.2c0.3-0.4,0.6-0.9,0.9-1.3
						C51.9,79.8,52,79.6,52,79.5"/>
					<path class="st2" d="M50.9,81.2v4.2c-0.6,0.7-1.2,1.3-2,1.9c-1.2,0.8-2.6,1.5-4.3,1.9c-1.6,0.4-3.4,0.7-5.3,0.8v-4.2
						c1.9-0.1,3.6-0.3,5.3-0.8c1.6-0.4,3.1-1.1,4.3-1.9C49.7,82.6,50.4,82,50.9,81.2"/>
				</g>
			</g>
			<g>
				<path class="st11" d="M51.8,70.6c0.7,1.3,1.1,2.8,1.1,4.6c0,1.8-0.4,3.4-1.1,4.7c-0.7,1.3-1.7,2.4-2.9,3.2s-2.6,1.5-4.3,1.9
					c-1.6,0.4-3.4,0.7-5.3,0.8c0,2.1,0,4.3,0,6.4c-3.1,0.2-6.2,0.4-9.4,0.6c0-9.2,0-18.3,0-27.5c3.1,0,6.3,0,9.4,0
					c1.9,0,3.6,0.2,5.3,0.6c1.6,0.4,3.1,0.9,4.3,1.7C50.2,68.3,51.1,69.4,51.8,70.6z M42.5,77.6c0.5-0.5,0.8-1.3,0.8-2.2
					c0-0.9-0.3-1.7-0.8-2.2c-0.5-0.5-1.3-0.7-2.5-0.7c-0.1,0-0.1,0-0.2,0c-0.1,0-0.3,0-0.4,0c0,2,0,4,0,6c0.1,0,0.3,0,0.4,0
					C41,78.5,41.9,78.2,42.5,77.6"/>
			</g>
			<g class="st0">
				<defs>
					<path id="SVGID_63_" class="st0" d="M39.4,92.2l0,4.2c-3.1,0.2-6.2,0.4-9.4,0.6l0-4.2C33.1,92.6,36.3,92.4,39.4,92.2z"/>
				</defs>
				<clipPath id="SVGID_64_">
					<use xlink:href="#SVGID_63_"  style="overflow:visible;"/>
				</clipPath>
				<g class="st37">
					<path class="st2" d="M39.4,92.2v4.2c-3.1,0.2-6.2,0.4-9.4,0.6v-4.2C33.1,92.6,36.3,92.4,39.4,92.2"/>
				</g>
			</g>
		</g>
		<g class="st0">
			<g class="st0">
				<defs>
					<path id="SVGID_65_" class="st0" d="M65,65.2v4.2c0,8.6,0,17.2,0,25.8l0-4.2C65,82.4,65,73.8,65,65.2z"/>
				</defs>
				<clipPath id="SVGID_66_">
					<use xlink:href="#SVGID_65_"  style="overflow:visible;"/>
				</clipPath>
				<g class="st38">
					<path class="st5" d="M65,65.2v4.2c0,8.6,0,17.2,0,25.8V91C65,82.4,65,73.8,65,65.2"/>
				</g>
			</g>
			<g>
				<path class="st11" d="M65,65.2c0,8.6,0,17.2,0,25.8c-3.3,0.1-6.6,0.3-9.9,0.4c0-8.7,0-17.5,0-26.2C58.4,65.2,61.7,65.2,65,65.2z
					"/>
			</g>
			<g class="st0">
				<defs>
					<path id="SVGID_67_" class="st0" d="M65,91l0,4.2c-3.3,0.1-6.6,0.3-9.9,0.4v-4.2C58.4,91.3,61.7,91.1,65,91z"/>
				</defs>
				<clipPath id="SVGID_68_">
					<use xlink:href="#SVGID_67_"  style="overflow:visible;"/>
				</clipPath>
				<g class="st39">
					<path class="st2" d="M65,91v4.2c-3.3,0.1-6.6,0.3-9.9,0.4v-4.2C58.4,91.3,61.7,91.1,65,91"/>
				</g>
			</g>
		</g>
		<g class="st0">
			<g class="st0">
				<defs>
					<path id="SVGID_69_" class="st0" d="M77.9,65.2l0,4.2c0,6.2,0,12.4,0,18.7l0-4.2C77.9,77.7,77.9,71.4,77.9,65.2z"/>
				</defs>
				<clipPath id="SVGID_70_">
					<use xlink:href="#SVGID_69_"  style="overflow:visible;"/>
				</clipPath>
				<g class="st40">
					<path class="st5" d="M77.9,65.2v4.2c0,6.2,0,12.4,0,18.7v-4.2C77.9,77.7,77.9,71.4,77.9,65.2"/>
				</g>
			</g>
			<g>
				<path class="st11" d="M77.9,65.2c0,6.2,0,12.4,0,18.7c2.7-0.1,5.4-0.1,8.1-0.2c0,2.2,0,4.4,0,6.6c-6,0.2-11.9,0.3-17.9,0.6
					c0-8.6,0-17.1,0-25.7C71.4,65.2,74.6,65.2,77.9,65.2z"/>
			</g>
			<g class="st0">
				<defs>
					<path id="SVGID_71_" class="st0" d="M85.9,90.3v4.2C80,94.6,74,94.8,68.1,95l0-4.2C74,90.7,80,90.5,85.9,90.3z"/>
				</defs>
				<clipPath id="SVGID_72_">
					<use xlink:href="#SVGID_71_"  style="overflow:visible;"/>
				</clipPath>
				<g class="st41">
					<path class="st2" d="M85.9,90.3v4.2C80,94.6,74,94.8,68.1,95v-4.2C74,90.7,80,90.5,85.9,90.3"/>
				</g>
			</g>
		</g>
		<g class="st0">
			<g class="st0">
				<defs>
					<path id="SVGID_73_" class="st0" d="M97.3,65.2v4.2c0,6.1,0,12.2,0,18.3l0-4.2C97.3,77.4,97.3,71.3,97.3,65.2z"/>
				</defs>
				<clipPath id="SVGID_74_">
					<use xlink:href="#SVGID_73_"  style="overflow:visible;"/>
				</clipPath>
				<g class="st42">
					<path class="st5" d="M97.3,65.2v4.2c0,6.1,0,12.2,0,18.3v-4.2C97.3,77.4,97.3,71.3,97.3,65.2"/>
				</g>
			</g>
			<g>
				<path class="st11" d="M97.3,65.2c0,6.1,0,12.2,0,18.3c2.7,0,5.4-0.1,8.1-0.1c0,2.2,0,4.3,0,6.5c-6,0.1-11.9,0.2-17.9,0.3
					c0-8.3,0-16.7,0-25C90.8,65.2,94,65.2,97.3,65.2z"/>
			</g>
			<g class="st0">
				<defs>
					<path id="SVGID_75_" class="st0" d="M105.4,89.9v4.2c-6,0.1-11.9,0.2-17.9,0.3l0-4.2C93.4,90.1,99.4,90,105.4,89.9z"/>
				</defs>
				<clipPath id="SVGID_76_">
					<use xlink:href="#SVGID_75_"  style="overflow:visible;"/>
				</clipPath>
				<g class="st43">
					<path class="st2" d="M105.4,89.9v4.2c-6,0.1-11.9,0.2-17.9,0.3v-4.2C93.4,90.1,99.4,90,105.4,89.9"/>
				</g>
			</g>
		</g>
		<g class="st0">
			<g class="st0">
				<defs>
					<path id="SVGID_77_" class="st0" d="M128.3,80.9v4.2c-2,2.5-4,4.9-6,7.4v-4.2C124.3,85.8,126.3,83.4,128.3,80.9z"/>
				</defs>
				<clipPath id="SVGID_78_">
					<use xlink:href="#SVGID_77_"  style="overflow:visible;"/>
				</clipPath>
				<g class="st44">
					<path class="st2" d="M128.3,80.9v4.2c-2,2.5-4,4.9-6,7.4v-4.2C124.3,85.8,126.3,83.4,128.3,80.9"/>
				</g>
			</g>
			<g class="st0">
				<defs>
					<path id="SVGID_79_" class="st0" d="M122.3,88.3v4.2c-2-2.4-4-4.9-6-7.3v-4.2C118.3,83.4,120.3,85.8,122.3,88.3z"/>
				</defs>
				<clipPath id="SVGID_80_">
					<use xlink:href="#SVGID_79_"  style="overflow:visible;"/>
				</clipPath>
				<g class="st45">
					<path class="st2" d="M122.3,88.3v4.2c-2-2.4-4-4.9-6-7.3v-4.2C118.3,83.4,120.3,85.8,122.3,88.3"/>
				</g>
			</g>
			<g class="st0">
				<defs>
					<path id="SVGID_81_" class="st0" d="M137.7,89.8V94c-3.1,0-6.3,0-9.4,0v-4.2C131.4,89.8,134.6,89.8,137.7,89.8z"/>
				</defs>
				<clipPath id="SVGID_82_">
					<use xlink:href="#SVGID_81_"  style="overflow:visible;"/>
				</clipPath>
				<g class="st46">
					<path class="st2" d="M137.7,89.8V94c-3.1,0-6.3,0-9.4,0v-4.2C131.4,89.8,134.6,89.8,137.7,89.8"/>
				</g>
			</g>
			<g class="st0">
				<defs>
					<path id="SVGID_83_" class="st0" d="M116.3,80.9v4.2c0,3,0,5.9,0,8.9v-4.2C116.3,86.8,116.3,83.9,116.3,80.9z"/>
				</defs>
				<clipPath id="SVGID_84_">
					<use xlink:href="#SVGID_83_"  style="overflow:visible;"/>
				</clipPath>
				<g class="st47">
					<path class="st5" d="M116.3,80.9v4.2c0,3,0,5.9,0,8.9v-4.2C116.3,86.8,116.3,83.9,116.3,80.9"/>
				</g>
			</g>
			<g>
				<path class="st11" d="M137.7,65.2c0,8.2,0,16.4,0,24.6c-3.1,0-6.3,0-9.4,0c0-2.9,0-5.9,0-8.8c-2,2.5-4,4.9-6,7.4
					c-2-2.4-4-4.9-6-7.3c0,3,0,5.9,0,8.9c-3.1,0-6.2,0.1-9.4,0.1c0-8.2,0-16.5,0-24.7c2.6,0,5.2,0,7.7,0c2.6,3.1,5.1,6.3,7.7,9.4
					c2.5-3.1,5.1-6.3,7.6-9.4C132.5,65.2,135.1,65.2,137.7,65.2z"/>
			</g>
			<g class="st0">
				<defs>
					<path id="SVGID_85_" class="st0" d="M116.3,89.8V94c-3.1,0-6.2,0.1-9.4,0.1v-4.2C110,89.9,113.2,89.8,116.3,89.8z"/>
				</defs>
				<clipPath id="SVGID_86_">
					<use xlink:href="#SVGID_85_"  style="overflow:visible;"/>
				</clipPath>
				<g class="st48">
					<path class="st2" d="M116.3,89.8V94c-3.1,0-6.2,0.1-9.4,0.1v-4.2C110,89.9,113.2,89.8,116.3,89.8"/>
				</g>
			</g>
		</g>
		<g class="st0">
			<g class="st0">
				<defs>
					<path id="SVGID_87_" class="st0" d="M158.1,71.7v4.2c-2.6,0-5.3,0-7.9,0v-4.2C152.8,71.7,155.4,71.7,158.1,71.7z"/>
				</defs>
				<clipPath id="SVGID_88_">
					<use xlink:href="#SVGID_87_"  style="overflow:visible;"/>
				</clipPath>
				<g class="st49">
					<path class="st2" d="M158.1,71.7v4.2c-2.6,0-5.3,0-7.9,0v-4.2C152.8,71.7,155.4,71.7,158.1,71.7"/>
				</g>
			</g>
			<g class="st0">
				<defs>
					<path id="SVGID_89_" class="st0" d="M157.9,80.7v4.2c-2.6,0-5.2-0.1-7.8-0.1v-4.2C152.7,80.6,155.3,80.6,157.9,80.7z"/>
				</defs>
				<clipPath id="SVGID_90_">
					<use xlink:href="#SVGID_89_"  style="overflow:visible;"/>
				</clipPath>
				<g class="st50">
					<path class="st2" d="M157.9,80.7v4.2c-2.6,0-5.2-0.1-7.8-0.1v-4.2C152.7,80.6,155.3,80.6,157.9,80.7"/>
				</g>
			</g>
			<g class="st0">
				<defs>
					<path id="SVGID_91_" class="st0" d="M140.8,89.8V94c0-8.2,0-16.4,0-24.6v-4.2C140.8,73.4,140.8,81.6,140.8,89.8z"/>
				</defs>
				<clipPath id="SVGID_92_">
					<use xlink:href="#SVGID_91_"  style="overflow:visible;"/>
				</clipPath>
				<g class="st51">
					<path class="st2" d="M140.8,89.8V94c0-8.2,0-16.4,0-24.6v-4.2C140.8,73.4,140.8,81.6,140.8,89.8"/>
				</g>
			</g>
			<g>
				<path class="st11" d="M158,65.2c0,2.2,0,4.4,0,6.5c-2.6,0-5.3,0-7.9,0c0,0.9,0,1.8,0,2.7c2.6,0,5.2,0,7.8,0.1c0,2.1,0,4.1,0,6.2
					c-2.6,0-5.2-0.1-7.8-0.1c0,1,0,1.9,0,2.9c2.7,0,5.5,0.1,8.2,0.1c0,2.2,0,4.4,0,6.5c-5.9-0.1-11.7-0.2-17.6-0.2
					c0-8.2,0-16.4,0-24.6C146.5,65.2,152.3,65.2,158,65.2z"/>
			</g>
			<g class="st0">
				<defs>
					<path id="SVGID_93_" class="st0" d="M158.4,90.1v4.2c-5.9-0.1-11.7-0.2-17.6-0.2v-4.2C146.6,89.9,152.5,90,158.4,90.1z"/>
				</defs>
				<clipPath id="SVGID_94_">
					<use xlink:href="#SVGID_93_"  style="overflow:visible;"/>
				</clipPath>
				<g class="st52">
					<path class="st2" d="M158.4,90.1v4.2c-5.9-0.1-11.7-0.2-17.6-0.2v-4.2C146.6,89.9,152.5,90,158.4,90.1"/>
				</g>
			</g>
		</g>
		<g class="st0">
			<g class="st0">
				<defs>
					<path id="SVGID_95_" class="st0" d="M172.8,72v4.2c-0.2,0-0.4,0-0.7,0c-0.3,0-0.5,0-0.8,0.1v-4.2c0.2-0.1,0.5-0.1,0.8-0.1
						C172.4,72,172.6,72,172.8,72z"/>
				</defs>
				<clipPath id="SVGID_96_">
					<use xlink:href="#SVGID_95_"  style="overflow:visible;"/>
				</clipPath>
				<g class="st53">
					<path class="st2" d="M172.8,72v4.2c-0.2,0-0.4,0-0.7,0c-0.3,0-0.5,0-0.8,0.1v-4.2c0.2-0.1,0.5-0.1,0.8-0.1
						C172.4,72,172.6,72,172.8,72"/>
				</g>
			</g>
			<g class="st0">
				<defs>
					<path id="SVGID_97_" class="st0" d="M175.3,72.2v4.2c-0.2,0-0.5-0.1-0.8-0.1c-0.2,0-0.5-0.1-0.8-0.1c-0.3,0-0.6,0-0.9-0.1V72
						c0.3,0,0.6,0,0.9,0.1c0.3,0,0.5,0.1,0.8,0.1C174.8,72.1,175.1,72.2,175.3,72.2z"/>
				</defs>
				<clipPath id="SVGID_98_">
					<use xlink:href="#SVGID_97_"  style="overflow:visible;"/>
				</clipPath>
				<g class="st54">
					<path class="st2" d="M175.3,72.2v4.2c-0.2,0-0.5-0.1-0.8-0.1c-0.2,0-0.5-0.1-0.8-0.1c-0.3,0-0.6,0-0.9-0.1V72
						c0.3,0,0.6,0,0.9,0.1c0.3,0,0.5,0.1,0.8,0.1C174.8,72.1,175.1,72.2,175.3,72.2"/>
				</g>
			</g>
			<g class="st0">
				<defs>
					<path id="SVGID_99_" class="st0" d="M171.4,72.1v4.2c-0.2,0-0.4,0.1-0.6,0.3v-4.2C171,72.2,171.2,72.1,171.4,72.1z"/>
				</defs>
				<clipPath id="SVGID_100_">
					<use xlink:href="#SVGID_99_"  style="overflow:visible;"/>
				</clipPath>
				<g class="st55">
					<path class="st2" d="M171.4,72.1v4.2c-0.2,0-0.4,0.1-0.6,0.3v-4.2C171,72.2,171.2,72.1,171.4,72.1"/>
				</g>
			</g>
			<g class="st0">
				<defs>
					<path id="SVGID_101_" class="st0" d="M170.8,72.3v4.2c-0.2,0.1-0.3,0.3-0.3,0.5v-4.2C170.5,72.6,170.6,72.5,170.8,72.3z"/>
				</defs>
				<clipPath id="SVGID_102_">
					<use xlink:href="#SVGID_101_"  style="overflow:visible;"/>
				</clipPath>
				<g class="st56">
					<path class="st2" d="M170.8,72.3v4.2c-0.1,0-0.1,0.1-0.1,0.1v-4.2C170.7,72.4,170.7,72.4,170.8,72.3"/>
					<path class="st7" d="M170.6,72.5v4.2c0,0-0.1,0.1-0.1,0.1v-4.2C170.6,72.5,170.6,72.5,170.6,72.5"/>
					<path class="st6" d="M170.6,72.6v4.2c0,0,0,0.1,0,0.1v-4.2C170.5,72.7,170.6,72.6,170.6,72.6"/>
					<path class="st5" d="M170.5,72.7v4.2c0,0,0,0.1,0,0.2v-4.2C170.5,72.8,170.5,72.8,170.5,72.7"/>
				</g>
			</g>
			<g class="st0">
				<defs>
					<path id="SVGID_103_" class="st0" d="M168.1,82.1v4.2c0-0.3-0.2-0.7-0.6-1c-0.4-0.3-0.9-0.7-1.6-1.2c-0.6-0.4-1.3-0.9-2-1.4
						c-0.7-0.5-1.4-1.1-2-1.7s-1.2-1.4-1.6-2.2c-0.4-0.8-0.6-1.7-0.6-2.8v-4.2c0,1,0.2,2,0.6,2.8c0.4,0.8,0.9,1.6,1.6,2.2
						s1.3,1.2,2,1.7c0.7,0.5,1.4,1,2,1.4c0.6,0.4,1.1,0.8,1.6,1.2C167.9,81.4,168.1,81.7,168.1,82.1z"/>
				</defs>
				<clipPath id="SVGID_104_">
					<use xlink:href="#SVGID_103_"  style="overflow:visible;"/>
				</clipPath>
				<g class="st57">
					<path class="st2" d="M168.1,82.1v4.2c0-0.3-0.2-0.7-0.6-1c-0.4-0.3-0.9-0.7-1.6-1.2c-0.6-0.4-1.3-0.9-2-1.4
						c-0.7-0.5-1.4-1.1-2-1.7s-1.2-1.4-1.6-2.2c-0.4-0.8-0.6-1.7-0.6-2.8v-4.2c0,1,0.2,2,0.6,2.8c0.4,0.8,0.9,1.6,1.6,2.2
						s1.3,1.2,2,1.7c0.7,0.5,1.4,1,2,1.4c0.6,0.4,1.1,0.8,1.6,1.2C167.9,81.4,168.1,81.7,168.1,82.1"/>
				</g>
			</g>
			<g class="st0">
				<defs>
					<path id="SVGID_105_" class="st0" d="M159.8,89.8V94c0-2.5,0-5,0-7.5v-4.2C159.8,84.9,159.8,87.3,159.8,89.8z"/>
				</defs>
				<clipPath id="SVGID_106_">
					<use xlink:href="#SVGID_105_"  style="overflow:visible;"/>
				</clipPath>
				<g class="st58">
					<path class="st2" d="M159.8,89.8V94c0-2.5,0-5,0-7.5v-4.2C159.8,84.9,159.8,87.3,159.8,89.8"/>
				</g>
			</g>
			<g class="st0">
				<defs>
					<path id="SVGID_107_" class="st0" d="M162.1,90.3v4.2c-0.9-0.1-1.6-0.3-2.3-0.5v-4.2C160.5,90,161.3,90.2,162.1,90.3z"/>
				</defs>
				<clipPath id="SVGID_108_">
					<use xlink:href="#SVGID_107_"  style="overflow:visible;"/>
				</clipPath>
				<g class="st59">
					<path class="st2" d="M162.1,90.3v4.2c-0.9-0.1-1.6-0.3-2.3-0.5v-4.2C160.5,90,161.3,90.2,162.1,90.3"/>
				</g>
			</g>
			<g class="st0">
				<defs>
					<path id="SVGID_109_" class="st0" d="M178.4,83.3v4.2c0,1.1-0.2,2.1-0.6,3.1c-0.4,1-1,1.8-1.9,2.5c-0.9,0.7-2,1.2-3.3,1.6
						c-1.2,0.3-2.6,0.5-4.1,0.5c-0.2,0-0.4,0-0.7,0c-1.1,0-2.2-0.1-3.1-0.2c-1-0.1-1.8-0.2-2.5-0.4v-4.2c0.7,0.1,1.6,0.3,2.5,0.4
						c1,0.1,2,0.2,3.1,0.2c0.2,0,0.5,0,0.7,0c1.6,0,2.9-0.2,4.1-0.5c1.4-0.4,2.5-0.9,3.3-1.6c0.9-0.7,1.5-1.5,1.9-2.5
						C178.2,85.4,178.4,84.4,178.4,83.3z"/>
				</defs>
				<clipPath id="SVGID_110_">
					<use xlink:href="#SVGID_109_"  style="overflow:visible;"/>
				</clipPath>
				<g class="st60">
					<path class="st5" d="M178.4,83.3v4.2c0,0.6-0.1,1.2-0.2,1.7V85C178.3,84.4,178.4,83.9,178.4,83.3"/>
					<path class="st6" d="M178.2,85v4.2c-0.1,0.5-0.2,0.9-0.4,1.3c0,0.1-0.1,0.1-0.1,0.2v-4.2c0-0.1,0.1-0.1,0.1-0.2
						C178,85.9,178.1,85.5,178.2,85"/>
					<path class="st7" d="M177.7,86.6v4.2c-0.2,0.4-0.5,0.8-0.7,1.2v-4.2C177.2,87.4,177.5,87,177.7,86.6"/>
					<path class="st2" d="M176.9,87.8v4.2c-0.3,0.4-0.7,0.7-1.1,1.1c-0.9,0.7-2,1.2-3.3,1.6c-1.2,0.3-2.6,0.5-4.1,0.5
						c-0.2,0-0.4,0-0.7,0c-1.1,0-2.2-0.1-3.1-0.2c-1-0.1-1.8-0.2-2.5-0.4v-4.2c0.7,0.1,1.6,0.3,2.5,0.4c1,0.1,2,0.2,3.1,0.2
						c0.2,0,0.5,0,0.7,0c1.6,0,2.9-0.2,4.1-0.5c1.4-0.4,2.5-0.9,3.3-1.6C176.3,88.5,176.6,88.1,176.9,87.8"/>
				</g>
			</g>
			<g>
				<path class="st11" d="M169.4,64.6c0.7,0,1.4,0,2.1,0.1c0.7,0.1,1.3,0.1,1.9,0.2c0.6,0.1,1.3,0.2,1.9,0.2c0,2.4,0,4.7,0,7.1
					c-0.2,0-0.5-0.1-0.8-0.1c-0.2,0-0.5-0.1-0.8-0.1c-0.3,0-0.6,0-0.9-0.1c-0.2,0-0.4,0-0.7,0c-0.3,0-0.5,0-0.8,0.1
					c-0.2,0-0.4,0.1-0.6,0.3c-0.2,0.1-0.3,0.3-0.3,0.5c0,0.2,0.2,0.5,0.6,0.8c0.4,0.3,0.9,0.7,1.4,1.1c0.6,0.4,1.2,0.9,1.9,1.4
					c0.7,0.5,1.3,1.2,1.9,1.8c0.6,0.7,1.1,1.5,1.5,2.3c0.4,0.9,0.6,1.8,0.6,2.9c0,1.1-0.2,2.2-0.6,3.1c-0.4,1-1,1.8-1.9,2.5
					c-0.9,0.7-2,1.2-3.3,1.6c-1.2,0.3-2.6,0.5-4.1,0.5c-0.2,0-0.4,0-0.7,0c-1.1,0-2.2-0.1-3.1-0.2c-1-0.1-1.8-0.2-2.5-0.4
					c-0.9-0.1-1.6-0.3-2.3-0.5c0-2.5,0-5,0-7.5c0.6,0.2,1.3,0.3,2,0.4c0.6,0.1,1.3,0.2,2,0.3c0.7,0.1,1.5,0.1,2.3,0.2
					c0,0,0.1,0,0.1,0c1.3,0,1.9-0.4,1.9-1.2c0-0.3-0.2-0.7-0.6-1c-0.4-0.3-0.9-0.7-1.6-1.2c-0.6-0.4-1.3-0.9-2-1.4
					c-0.7-0.5-1.4-1.1-2-1.7s-1.2-1.4-1.6-2.2c-0.4-0.8-0.6-1.7-0.6-2.8c0-1.2,0.2-2.2,0.7-3.1c0.5-0.9,1.2-1.6,2.1-2.2
					c0.9-0.6,1.9-1.1,3.1-1.4C166.8,64.8,168.1,64.6,169.4,64.6z"/>
			</g>
		</g>
		<g class="st0">
			<g class="st0">
				<defs>
					<path id="SVGID_111_" class="st0" d="M193.3,72.2v4.2c-0.3,0-0.6,0-0.9,0c-0.2,0-0.4,0-0.7,0c-0.3,0-0.5,0-0.8,0.1v-4.2
						c0.2,0,0.5-0.1,0.8-0.1c0.3,0,0.5,0,0.7,0C192.7,72.2,193,72.2,193.3,72.2z"/>
				</defs>
				<clipPath id="SVGID_112_">
					<use xlink:href="#SVGID_111_"  style="overflow:visible;"/>
				</clipPath>
				<g class="st61">
					<path class="st2" d="M193.3,72.2v4.2c-0.3,0-0.6,0-0.9,0c-0.2,0-0.4,0-0.7,0c-0.3,0-0.5,0-0.8,0.1v-4.2c0.2,0,0.5-0.1,0.8-0.1
						c0.3,0,0.5,0,0.7,0C192.7,72.2,193,72.2,193.3,72.2"/>
				</g>
			</g>
			<g class="st0">
				<defs>
					<path id="SVGID_113_" class="st0" d="M194.9,72.4v4.2c-0.2,0-0.5-0.1-0.8-0.1c-0.2,0-0.5-0.1-0.8-0.1v-4.2
						c0.3,0,0.5,0.1,0.8,0.1C194.4,72.3,194.7,72.4,194.9,72.4z"/>
				</defs>
				<clipPath id="SVGID_114_">
					<use xlink:href="#SVGID_113_"  style="overflow:visible;"/>
				</clipPath>
				<g class="st62">
					<path class="st2" d="M194.9,72.4v4.2c-0.2,0-0.5-0.1-0.8-0.1c-0.2,0-0.5-0.1-0.8-0.1v-4.2c0.3,0,0.5,0.1,0.8,0.1
						C194.4,72.3,194.7,72.4,194.9,72.4"/>
				</g>
			</g>
			<g class="st0">
				<defs>
					<path id="SVGID_115_" class="st0" d="M191,72.3v4.2c-0.2,0.1-0.4,0.1-0.6,0.3v-4.2C190.5,72.4,190.7,72.3,191,72.3z"/>
				</defs>
				<clipPath id="SVGID_116_">
					<use xlink:href="#SVGID_115_"  style="overflow:visible;"/>
				</clipPath>
				<g class="st63">
					<path class="st2" d="M191,72.3v4.2c-0.2,0.1-0.4,0.1-0.6,0.3v-4.2C190.5,72.4,190.7,72.3,191,72.3"/>
				</g>
			</g>
			<g class="st0">
				<defs>
					<path id="SVGID_117_" class="st0" d="M190.4,72.5v4.2c-0.2,0.1-0.3,0.3-0.3,0.5v-4.2C190.1,72.8,190.2,72.7,190.4,72.5z"/>
				</defs>
				<clipPath id="SVGID_118_">
					<use xlink:href="#SVGID_117_"  style="overflow:visible;"/>
				</clipPath>
				<g class="st64">
					<path class="st2" d="M190.4,72.5v4.2c-0.1,0-0.1,0.1-0.1,0.1v-4.2C190.3,72.6,190.3,72.6,190.4,72.5"/>
					<path class="st7" d="M190.2,72.7v4.2c0,0,0,0.1-0.1,0.1v-4.2C190.2,72.7,190.2,72.7,190.2,72.7"/>
					<path class="st6" d="M190.2,72.8v4.2c0,0,0,0.1,0,0.1v-4.2C190.1,72.9,190.1,72.8,190.2,72.8"/>
					<path class="st5" d="M190.1,72.9v4.2c0,0.1,0,0.1,0,0.2v-4.2C190.1,73,190.1,73,190.1,72.9"/>
				</g>
			</g>
			<g class="st0">
				<defs>
					<path id="SVGID_119_" class="st0" d="M187.7,82.5v4.2c0-0.3-0.2-0.7-0.6-1c-0.4-0.4-0.9-0.8-1.6-1.2c-0.6-0.4-1.3-0.9-2-1.4
						s-1.4-1.1-2-1.8c-0.6-0.7-1.2-1.4-1.6-2.3c-0.4-0.8-0.6-1.8-0.6-2.8v-4.2c0,1.1,0.2,2,0.6,2.8c0.4,0.8,0.9,1.6,1.6,2.3
						c0.6,0.7,1.3,1.3,2,1.8s1.4,1,2,1.4c0.6,0.4,1.2,0.8,1.6,1.2C187.5,81.8,187.7,82.2,187.7,82.5z"/>
				</defs>
				<clipPath id="SVGID_120_">
					<use xlink:href="#SVGID_119_"  style="overflow:visible;"/>
				</clipPath>
				<g class="st65">
					<path class="st2" d="M187.7,82.5v4.2c0-0.3-0.2-0.7-0.6-1c-0.4-0.4-0.9-0.8-1.6-1.2c-0.6-0.4-1.3-0.9-2-1.4s-1.4-1.1-2-1.8
						c-0.6-0.7-1.2-1.4-1.6-2.3c-0.4-0.8-0.6-1.8-0.6-2.8v-4.2c0,1.1,0.2,2,0.6,2.8c0.4,0.8,0.9,1.6,1.6,2.3c0.6,0.7,1.3,1.3,2,1.8
						s1.4,1,2,1.4c0.6,0.4,1.2,0.8,1.6,1.2C187.5,81.8,187.7,82.2,187.7,82.5"/>
				</g>
			</g>
			<g class="st0">
				<defs>
					<path id="SVGID_121_" class="st0" d="M179.4,90.4v4.2c0-2.5,0-5.1,0-7.6v-4.2C179.4,85.3,179.4,87.8,179.4,90.4z"/>
				</defs>
				<clipPath id="SVGID_122_">
					<use xlink:href="#SVGID_121_"  style="overflow:visible;"/>
				</clipPath>
				<g class="st66">
					<path class="st2" d="M179.4,90.4v4.2c0-2.5,0-5.1,0-7.6v-4.2C179.4,85.3,179.4,87.8,179.4,90.4"/>
				</g>
			</g>
			<g class="st0">
				<defs>
					<path id="SVGID_123_" class="st0" d="M198,83.8V88c0,1.1-0.2,2.2-0.6,3.1c-0.4,1-1,1.8-1.9,2.5c-0.9,0.7-2,1.2-3.3,1.6
						c-1.1,0.3-2.4,0.5-3.9,0.5c-0.3,0-0.6,0-0.9,0c-1.1,0-2.2-0.1-3.1-0.2c-1-0.1-1.8-0.3-2.5-0.4c-0.8-0.2-1.6-0.3-2.3-0.5v-4.2
						c0.7,0.2,1.5,0.4,2.3,0.5c0.7,0.2,1.6,0.3,2.5,0.4c0.9,0.1,2,0.2,3.1,0.2c0.3,0,0.6,0,0.9,0c1.5,0,2.7-0.2,3.9-0.5
						c1.4-0.4,2.5-0.9,3.3-1.6c0.9-0.7,1.5-1.6,1.9-2.5C197.8,86,198,85,198,83.8z"/>
				</defs>
				<clipPath id="SVGID_124_">
					<use xlink:href="#SVGID_123_"  style="overflow:visible;"/>
				</clipPath>
				<g class="st67">
					<path class="st5" d="M198,83.8V88c0,0.6-0.1,1.2-0.2,1.8v-4.2C197.9,85.1,198,84.5,198,83.8"/>
					<path class="st6" d="M197.8,85.6v4.2c-0.1,0.5-0.2,0.9-0.4,1.3c0,0.1-0.1,0.2-0.1,0.3v-4.2c0-0.1,0.1-0.2,0.1-0.3
						C197.5,86.5,197.7,86.1,197.8,85.6"/>
					<path class="st7" d="M197.3,87.2v4.2c-0.2,0.4-0.5,0.9-0.8,1.2v-4.2C196.8,88.1,197,87.7,197.3,87.2"/>
					<path class="st2" d="M196.5,88.5v4.2c-0.3,0.4-0.6,0.7-1,1c-0.9,0.7-2,1.2-3.3,1.6c-1.1,0.3-2.4,0.5-3.9,0.5
						c-0.3,0-0.6,0-0.9,0c-1.1,0-2.2-0.1-3.1-0.2c-1-0.1-1.8-0.3-2.5-0.4c-0.8-0.2-1.6-0.3-2.3-0.5v-4.2c0.7,0.2,1.5,0.4,2.3,0.5
						c0.7,0.2,1.6,0.3,2.5,0.4c0.9,0.1,2,0.2,3.1,0.2c0.3,0,0.6,0,0.9,0c1.5,0,2.7-0.2,3.9-0.5c1.4-0.4,2.5-0.9,3.3-1.6
						C195.9,89.2,196.2,88.8,196.5,88.5"/>
				</g>
			</g>
			<g>
				<path class="st11" d="M189,64.6c0.7,0,1.4,0,2.1,0.1c0.7,0.1,1.3,0.1,1.9,0.2c0.6,0.1,1.3,0.2,1.9,0.2c0,2.4,0,4.9,0,7.3
					c-0.2,0-0.5-0.1-0.8-0.1c-0.2,0-0.5-0.1-0.8-0.1c-0.3,0-0.6,0-0.9,0c-0.2,0-0.4,0-0.7,0c-0.3,0-0.5,0-0.8,0.1
					c-0.2,0.1-0.4,0.1-0.6,0.3c-0.2,0.1-0.3,0.3-0.3,0.5c0,0.2,0.2,0.5,0.6,0.8c0.4,0.3,0.9,0.7,1.4,1.1c0.6,0.4,1.2,0.9,1.9,1.5
					c0.7,0.6,1.3,1.2,1.9,1.9c0.6,0.7,1.1,1.5,1.5,2.4c0.4,0.9,0.6,1.9,0.6,3c0,1.1-0.2,2.2-0.6,3.2c-0.4,1-1,1.8-1.9,2.5
					c-0.9,0.7-2,1.2-3.3,1.6c-1.1,0.3-2.4,0.5-3.9,0.5c-0.3,0-0.6,0-0.9,0c-1.1,0-2.2-0.1-3.1-0.2c-1-0.1-1.8-0.3-2.5-0.4
					c-0.8-0.2-1.6-0.3-2.3-0.5c0-2.5,0-5.1,0-7.6c0.6,0.2,1.3,0.3,2,0.5c0.6,0.1,1.3,0.3,2,0.4c0.7,0.1,1.5,0.2,2.3,0.2
					c0.1,0,0.1,0,0.2,0c1.2,0,1.8-0.4,1.8-1.3c0-0.3-0.2-0.7-0.6-1c-0.4-0.4-0.9-0.8-1.6-1.2c-0.6-0.4-1.3-0.9-2-1.4s-1.4-1.1-2-1.8
					c-0.6-0.7-1.2-1.4-1.6-2.3c-0.4-0.8-0.6-1.8-0.6-2.8c0-1.2,0.2-2.2,0.7-3.2c0.5-0.9,1.2-1.7,2.1-2.3c0.9-0.6,1.9-1.1,3.1-1.4
					C186.4,64.8,187.6,64.6,189,64.6z"/>
			</g>
		</g>
		<g class="st0">
			<g class="st0">
				<defs>
					<path id="SVGID_125_" class="st0" d="M217.2,72.4v4.2c-2.6,0-5.3-0.1-7.9-0.1v-4.2C212,72.3,214.6,72.3,217.2,72.4z"/>
				</defs>
				<clipPath id="SVGID_126_">
					<use xlink:href="#SVGID_125_"  style="overflow:visible;"/>
				</clipPath>
				<g class="st68">
					<path class="st2" d="M217.2,72.4v4.2c-2.6,0-5.3-0.1-7.9-0.1v-4.2C212,72.3,214.6,72.3,217.2,72.4"/>
				</g>
			</g>
			<g class="st0">
				<defs>
					<path id="SVGID_127_" class="st0" d="M217.1,82.1v4.2c-2.6-0.1-5.2-0.2-7.8-0.3v-4.2C211.9,81.9,214.5,82,217.1,82.1z"/>
				</defs>
				<clipPath id="SVGID_128_">
					<use xlink:href="#SVGID_127_"  style="overflow:visible;"/>
				</clipPath>
				<g class="st69">
					<path class="st2" d="M217.1,82.1v4.2c-2.6-0.1-5.2-0.2-7.8-0.3v-4.2C211.9,81.9,214.5,82,217.1,82.1"/>
				</g>
			</g>
			<g class="st0">
				<defs>
					<path id="SVGID_129_" class="st0" d="M200,91.4v4.2c0-8.7,0-17.5,0-26.2v-4.2C200,74,200,82.7,200,91.4z"/>
				</defs>
				<clipPath id="SVGID_130_">
					<use xlink:href="#SVGID_129_"  style="overflow:visible;"/>
				</clipPath>
				<g class="st70">
					<path class="st2" d="M200,91.4v4.2c0-8.7,0-17.5,0-26.2v-4.2C200,74,200,82.7,200,91.4"/>
				</g>
			</g>
			<g>
				<path class="st11" d="M199.9,65.2c5.8,0,11.5,0,17.3,0c0,2.4,0,4.7,0,7.1c-2.6,0-5.3-0.1-7.9-0.1c0,1,0,2,0,3
					c2.6,0.1,5.2,0.1,7.8,0.2c0,2.2,0,4.5,0,6.7c-2.6-0.1-5.2-0.2-7.8-0.3c0,1,0,2,0,3.1c2.7,0.1,5.5,0.2,8.2,0.3c0,2.4,0,4.7,0,7.1
					c-5.9-0.3-11.7-0.6-17.6-0.9C200,82.7,200,74,199.9,65.2z"/>
			</g>
			<g class="st0">
				<defs>
					<path id="SVGID_131_" class="st0" d="M217.6,92.4v4.2c-5.9-0.3-11.7-0.6-17.6-0.9v-4.2C205.8,91.7,211.7,92,217.6,92.4z"/>
				</defs>
				<clipPath id="SVGID_132_">
					<use xlink:href="#SVGID_131_"  style="overflow:visible;"/>
				</clipPath>
				<g class="st71">
					<path class="st2" d="M217.6,92.4v4.2c-5.9-0.3-11.7-0.6-17.6-0.9v-4.2C205.8,91.7,211.7,92,217.6,92.4"/>
				</g>
			</g>
		</g>
		<g class="st0">
			<g class="st0">
				<defs>
					<path id="SVGID_133_" class="st0" d="M220.2,92.5v4.2c0-9.1,0-18.2,0-27.3v-4.2C220.2,74.4,220.2,83.4,220.2,92.5z"/>
				</defs>
				<clipPath id="SVGID_134_">
					<use xlink:href="#SVGID_133_"  style="overflow:visible;"/>
				</clipPath>
				<g class="st72">
					<path class="st2" d="M220.2,92.5v4.2c0-9.1,0-18.2,0-27.3v-4.2C220.2,74.4,220.2,83.4,220.2,92.5"/>
				</g>
			</g>
			<g class="st0">
				<defs>
					<path id="SVGID_135_" class="st0" d="M229.4,93.1v4.2c-3.1-0.2-6.1-0.4-9.2-0.6v-4.2C223.3,92.7,226.3,92.9,229.4,93.1z"/>
				</defs>
				<clipPath id="SVGID_136_">
					<use xlink:href="#SVGID_135_"  style="overflow:visible;"/>
				</clipPath>
				<g class="st73">
					<path class="st2" d="M229.4,93.1v4.2c-3.1-0.2-6.1-0.4-9.2-0.6v-4.2C223.3,92.7,226.3,92.9,229.4,93.1"/>
				</g>
			</g>
			<g class="st0">
				<defs>
					<path id="SVGID_137_" class="st0" d="M237.4,93.6v4.2c-2.7-3.8-5.4-7.6-8-11.2v-4.2C232.1,86.1,234.8,89.8,237.4,93.6z"/>
				</defs>
				<clipPath id="SVGID_138_">
					<use xlink:href="#SVGID_137_"  style="overflow:visible;"/>
				</clipPath>
				<g class="st74">
					<path class="st2" d="M237.4,93.6v4.2c-2.7-3.8-5.4-7.6-8-11.2v-4.2C232.1,86.1,234.8,89.8,237.4,93.6"/>
				</g>
			</g>
			<g>
				<path class="st11" d="M220.2,65.3c2.6,0,5.1,0,7.7,0c2.7,3.6,5.4,7.2,8.1,10.9c0-3.6,0-7.3,0-10.9c3.1,0,6.1,0,9.2,0
					c0,9.6,0,19.3,0,28.9c-2.6-0.2-5.2-0.4-7.7-0.6c-2.7-3.8-5.4-7.6-8-11.2c0,3.6,0,7.1,0,10.7c-3.1-0.2-6.1-0.4-9.2-0.6
					C220.2,83.4,220.2,74.4,220.2,65.3z"/>
			</g>
			<g class="st0">
				<defs>
					<path id="SVGID_139_" class="st0" d="M245.2,94.2v4.2c-2.6-0.2-5.2-0.4-7.7-0.6v-4.2C240,93.8,242.6,94,245.2,94.2z"/>
				</defs>
				<clipPath id="SVGID_140_">
					<use xlink:href="#SVGID_139_"  style="overflow:visible;"/>
				</clipPath>
				<g class="st75">
					<path class="st2" d="M245.2,94.2v4.2c-2.6-0.2-5.2-0.4-7.7-0.6v-4.2C240,93.8,242.6,94,245.2,94.2"/>
				</g>
			</g>
		</g>
	</g>
</g>
<g>
</g>
<g>
	<g>
		<g class="st0">
			<g class="st0">
				<defs>
					<path id="SVGID_141_" class="st0" d="M238.2,29.8V34c-8.1,1.3-16.3,2.7-24.4,4.2v-4.2C221.9,32.5,230.1,31.1,238.2,29.8z"/>
				</defs>
				<clipPath id="SVGID_142_">
					<use xlink:href="#SVGID_141_"  style="overflow:visible;"/>
				</clipPath>
				<g class="st76">
					<path class="st2" d="M238.2,29.8V34c-8.1,1.3-16.3,2.7-24.4,4.2v-4.2C221.9,32.5,230.1,31.1,238.2,29.8"/>
				</g>
			</g>
			<g class="st0">
				<defs>
					<path id="SVGID_143_" class="st0" d="M215.3,43.7l0,4.2c-1.4,0.3-2.9,0.5-4.3,0.8l0-4.2C212.4,44.3,213.9,44,215.3,43.7z"/>
				</defs>
				<clipPath id="SVGID_144_">
					<use xlink:href="#SVGID_143_"  style="overflow:visible;"/>
				</clipPath>
				<g class="st77">
					<path class="st2" d="M215.3,43.7v4.2c-1.4,0.3-2.9,0.5-4.3,0.8v-4.2C212.4,44.3,213.9,44,215.3,43.7"/>
				</g>
			</g>
			<g>
				<path class="st11" d="M238.2,29.8c-8.1,1.3-16.3,2.7-24.4,4.2c7.5,3.6,15,7.3,22.4,11.2c-1.4,3.1-3.3,5.7-5.7,7.9
					c-2.5,2.3-5.4,4.1-8.8,5.4c-3.4,1.3-6.9,1.9-10.7,1.9s-7.4-0.6-10.7-1.9c-3.4-1.3-6.3-3.1-8.8-5.4c-2.5-2.3-4.5-5.1-5.9-8.3
					c-1.4-3.2-2.2-6.7-2.2-10.4c0-3.7,0.7-7.3,2.2-10.6c1.4-3.3,3.4-6.2,5.9-8.7c2.5-2.5,5.4-4.4,8.8-5.8c3.4-1.4,6.9-2.1,10.7-2.1
					c3.8,0,7.4,0.7,10.7,2.1c3.4,1.4,6.3,3.3,8.8,5.8c2.5,2.5,4.5,5.4,5.9,8.7C237.3,25.7,237.9,27.7,238.2,29.8z M215.3,43.7
					c-1.4,0.3-2.9,0.5-4.3,0.8C212.5,44.5,213.9,44.3,215.3,43.7"/>
			</g>
			<g class="st0">
				<defs>
					<path id="SVGID_145_" class="st0" d="M236.2,45.3v4.2c-1.4,3.1-3.3,5.7-5.7,7.9c-2.5,2.3-5.4,4.1-8.8,5.4
						c-3.4,1.3-6.9,1.9-10.7,1.9s-7.4-0.6-10.7-1.9s-6.3-3.1-8.8-5.4c-2.5-2.3-4.5-5.1-5.9-8.3c-1.4-3.2-2.2-6.7-2.2-10.4l0-4.2
						c0,3.7,0.7,7.2,2.2,10.4c1.4,3.2,3.4,6,5.9,8.3c2.5,2.3,5.4,4.1,8.8,5.4c3.4,1.3,6.9,1.9,10.7,1.9s7.4-0.6,10.7-1.9
						c3.4-1.3,6.3-3.1,8.8-5.4C232.9,51,234.8,48.3,236.2,45.3z"/>
				</defs>
				<clipPath id="SVGID_146_">
					<use xlink:href="#SVGID_145_"  style="overflow:visible;"/>
				</clipPath>
				<g class="st78">
					<path class="st7" d="M236.2,45.3v4.2c-0.9,1.9-1.9,3.6-3.2,5.2v-4.2C234.3,48.9,235.3,47.2,236.2,45.3"/>
					<path class="st2" d="M233,50.5v4.2c-0.8,1-1.6,1.9-2.5,2.7c-2.5,2.3-5.4,4.1-8.8,5.4c-3.4,1.3-6.9,1.9-10.7,1.9
						s-7.4-0.6-10.7-1.9s-6.3-3.1-8.8-5.4c-2.5-2.3-4.5-5.1-5.9-8.3c-1.4-3.2-2.2-6.7-2.2-10.4v-4.2c0,3.7,0.7,7.2,2.2,10.4
						c1.4,3.2,3.4,6,5.9,8.3c2.5,2.3,5.4,4.1,8.8,5.4c3.4,1.3,6.9,1.9,10.7,1.9s7.4-0.6,10.7-1.9c3.4-1.3,6.3-3.1,8.8-5.4
						C231.4,52.3,232.3,51.4,233,50.5"/>
				</g>
			</g>
		</g>
	</g>
</g>
</svg>
